<svg width="151" height="105" viewBox="0 0 151 105" fill="none" xmlns="http://www.w3.org/2000/svg">
<path d="M75.1118 104.827C49.7877 104.827 26.5594 92.2606 11.2499 70.2307C11.082 69.9889 11.072 69.671 11.2246 69.4198C17.6596 58.8073 27.0456 49.8907 38.3674 43.6334C49.6891 37.3759 62.2241 34.1784 74.6249 34.3798C99.5725 34.7895 124.286 49.2191 139.12 72.0379C139.291 72.3005 139.279 72.642 139.091 72.8918C131.892 82.4437 122.266 90.4457 111.251 96.0329C100.236 101.62 88.0976 104.659 76.1477 104.821C75.8021 104.825 75.4566 104.827 75.1118 104.827ZM12.748 69.7783C27.9829 91.4491 51.0609 103.68 76.1282 103.333C99.7342 103.014 123.233 91.1788 137.588 72.4119C122.99 50.2555 98.901 36.2666 74.6008 35.8678C49.9212 35.466 25.7031 48.7576 12.748 69.7783Z" fill="url(#paint0_linear_2085_204)"/>
<path d="M75.1787 101.379C57.6764 101.379 43.4373 87.123 43.4373 69.5991C43.4373 52.0751 57.6762 37.8186 75.1787 37.8186C92.6813 37.8186 106.92 52.0751 106.92 69.5991C106.92 87.123 92.6811 101.379 75.1787 101.379ZM75.1787 39.3068C58.4958 39.3068 44.9234 52.896 44.9234 69.5993C44.9234 86.3026 58.4958 99.8916 75.1787 99.8916C91.8617 99.8916 105.434 86.3026 105.434 69.5993C105.434 52.896 91.8614 39.3068 75.1787 39.3068Z" fill="url(#paint1_linear_2085_204)"/>
<path d="M75.1787 88.2158C64.9257 88.2158 56.5845 79.8641 56.5845 69.5988C56.5845 59.3336 64.926 50.9817 75.1787 50.9817C85.4314 50.9817 93.7731 59.3334 93.7731 69.5988C93.7731 79.8643 85.4316 88.2158 75.1787 88.2158ZM75.1787 52.4697C65.7454 52.4697 58.0707 60.1538 58.0707 69.5988C58.0707 79.0439 65.7454 86.7278 75.1787 86.7278C84.612 86.7278 92.2869 79.0437 92.2869 69.5988C92.2869 60.154 84.6123 52.4697 75.1787 52.4697Z" fill="url(#paint2_linear_2085_204)"/>
<path d="M74.2719 66.4569C75.384 63.191 78.7257 60.8251 82.172 60.8636C84.1706 60.8859 86.2553 61.7541 87.2904 63.466C88.1316 64.8571 88.1789 66.6057 87.843 68.1966C87.1732 71.3683 85.1114 74.1075 82.626 76.185C80.1406 78.2625 77.2319 79.7574 74.3764 81.3543C69.7992 79.2259 65.9537 75.5556 63.612 71.0796C62.6343 69.211 61.9016 67.131 62.0767 65.0287C62.2519 62.9264 63.5065 60.8166 65.4955 60.1213C67.1865 59.53 69.1066 60.0422 70.597 61.0369C72.0874 62.0316 73.2288 63.4576 74.2719 66.4569Z" fill="url(#paint3_linear_2085_204)"/>
<path d="M39.2738 44.5629C39.0182 44.5629 38.7692 44.4307 38.631 44.1937L22.037 15.6825C21.8304 15.3274 21.95 14.8718 22.3047 14.6652C22.6597 14.4579 23.114 14.5784 23.3208 14.9333L39.9149 43.4445C40.1214 43.7996 40.0018 44.2552 39.6471 44.462C39.5292 44.5307 39.4006 44.5632 39.2735 44.5632L39.2738 44.5629Z" fill="url(#paint4_linear_2085_204)"/>
<path d="M61.3981 36.5637C61.0778 36.5637 60.7821 36.3547 60.6862 36.0318L51.0575 3.62338C50.9403 3.22955 51.1645 2.81515 51.5578 2.6981C51.9517 2.58154 52.3651 2.80524 52.4817 3.19906L62.1105 35.6075C62.2277 36.0013 62.0035 36.4157 61.6101 36.5325C61.5395 36.5536 61.4682 36.5637 61.3981 36.5637Z" fill="url(#paint5_linear_2085_204)"/>
<path d="M83.5245 35.9482C83.5039 35.9482 83.4831 35.9475 83.4621 35.9455C83.0531 35.9112 82.7492 35.5519 82.7834 35.1424L85.6515 0.68306C85.6854 0.273612 86.0393 -0.0368818 86.4535 0.00354219C86.8624 0.0377662 87.1664 0.397128 87.1322 0.806576L84.2641 35.266C84.2319 35.6543 83.9072 35.9482 83.5245 35.9482Z" fill="url(#paint6_linear_2085_204)"/>
<path d="M106.673 43.7425C106.557 43.7425 106.439 43.7152 106.329 43.6577C105.966 43.4675 105.825 43.0179 106.015 42.6538L120.355 15.1684C120.545 14.8043 120.994 14.6635 121.358 14.8532C121.722 15.0434 121.863 15.4931 121.673 15.8571L107.332 43.3425C107.2 43.5967 106.941 43.7425 106.673 43.7425Z" fill="url(#paint7_linear_2085_204)"/>
<path d="M131.871 64.2538C131.73 64.2538 131.587 64.2134 131.46 64.1288C131.118 63.9009 131.026 63.4391 131.254 63.0971L146.824 39.7139C147.051 39.3719 147.512 39.2792 147.854 39.5076C148.196 39.7355 148.288 40.1973 148.06 40.5393L132.491 63.9225C132.347 64.1375 132.112 64.2538 131.871 64.2538Z" fill="url(#paint8_linear_2085_204)"/>
<path d="M17.558 61.7929C17.3239 61.7929 17.0936 61.6829 16.9491 61.4765L1.99391 40.1443C1.7581 39.808 1.83909 39.344 2.17497 39.1079C2.51134 38.8715 2.97477 38.9531 3.21008 39.2892L18.1653 60.6214C18.4011 60.9577 18.3201 61.422 17.9843 61.6578C17.8545 61.7491 17.7054 61.7929 17.558 61.7929Z" fill="url(#paint9_linear_2085_204)"/>
<path d="M149.81 72.5941C150.118 71.2876 149.31 69.9784 148.005 69.67C146.7 69.3616 145.393 70.1706 145.085 71.4771C144.777 72.7836 145.585 74.0928 146.89 74.4012C148.195 74.7097 149.502 73.9006 149.81 72.5941Z" fill="url(#paint10_linear_2085_204)"/>
<path d="M5.28328 71.1764C5.59134 69.8699 4.78323 68.5607 3.47832 68.2523C2.17342 67.9438 0.865847 68.7529 0.557789 70.0594C0.249731 71.3659 1.05784 72.6751 2.36274 72.9835C3.66765 73.292 4.97522 72.4829 5.28328 71.1764Z" fill="url(#paint11_linear_2085_204)"/>
<path d="M18.1682 36.9226C19.1163 35.9734 19.1163 34.4344 18.1682 33.4851C17.2202 32.5359 15.683 32.5359 14.7349 33.4851C13.7869 34.4344 13.7869 35.9734 14.7349 36.9226C15.683 37.8718 17.2202 37.8718 18.1682 36.9226Z" fill="url(#paint12_linear_2085_204)"/>
<path d="M45.2141 23.0986C46.1622 22.1494 46.1622 20.6104 45.2141 19.6611C44.2661 18.7119 42.7289 18.7119 41.7808 19.6611C40.8328 20.6104 40.8328 22.1494 41.7808 23.0986C42.7289 24.0478 44.2661 24.0478 45.2141 23.0986Z" fill="url(#paint13_linear_2085_204)"/>
<path d="M132.589 36.2026C132.804 34.8775 131.905 33.629 130.582 33.414C129.258 33.199 128.011 34.0989 127.796 35.424C127.582 36.749 128.48 37.9976 129.804 38.2126C131.127 38.4276 132.374 37.5277 132.589 36.2026Z" fill="url(#paint14_linear_2085_204)"/>
<path d="M73.2598 16.0772C73.5678 14.7707 72.7598 13.4616 71.4549 13.1531C70.15 12.8447 68.8424 13.6538 68.5344 14.9603C68.2263 16.2668 69.0344 17.576 70.3393 17.8844C71.6442 18.1928 72.9517 17.3837 73.2598 16.0772Z" fill="url(#paint15_linear_2085_204)"/>
<path d="M101.957 20.9383C102.265 19.6318 101.457 18.3226 100.152 18.0142C98.8469 17.7058 97.5394 18.5149 97.2314 19.8214C96.9233 21.1279 97.7314 22.437 99.0363 22.7455C100.341 23.0539 101.649 22.2448 101.957 20.9383Z" fill="url(#paint16_linear_2085_204)"/>
<path d="M27.7641 51.3972C27.5375 51.3972 27.3135 51.2938 27.1677 51.0977L16.9982 37.4291C16.7532 37.0998 16.8211 36.6335 17.1503 36.388C17.4792 36.1428 17.9449 36.2107 18.1901 36.5403L28.3596 50.2088C28.6046 50.5382 28.5367 51.0044 28.2075 51.2499C28.0742 51.3491 27.9184 51.3972 27.7641 51.3972Z" fill="url(#paint17_linear_2085_204)"/>
<path d="M49.8776 39.0633C49.5836 39.0633 49.3051 38.8875 49.1885 38.5978L42.8085 22.796C42.6547 22.4151 42.8385 21.9816 43.2189 21.8275C43.5994 21.6725 44.0324 21.8575 44.1862 22.2385L50.5662 38.0403C50.72 38.4212 50.5362 38.8548 50.1557 39.0088C50.0646 39.0457 49.9702 39.0633 49.8776 39.0633Z" fill="url(#paint18_linear_2085_204)"/>
<path d="M72.1797 35.1285C71.7948 35.1285 71.4691 34.8313 71.4397 34.4407L70.1509 17.4456C70.1197 17.0359 70.4263 16.6783 70.8355 16.6473C71.2481 16.6175 71.6019 16.923 71.6329 17.3327L72.9216 34.3279C72.9528 34.7376 72.6462 35.0952 72.237 35.1262C72.2177 35.1277 72.1988 35.1285 72.1797 35.1285Z" fill="url(#paint19_linear_2085_204)"/>
<path d="M94.7863 38.4913C94.7179 38.4913 94.6478 38.4816 94.5787 38.4616C94.1846 38.347 93.958 37.9341 94.0724 37.5395L98.8223 21.1722C98.9367 20.7776 99.3479 20.5505 99.7432 20.6653C100.137 20.7799 100.364 21.1928 100.249 21.5874L95.4997 37.9547C95.4053 38.2798 95.1085 38.4913 94.7863 38.4913Z" fill="url(#paint20_linear_2085_204)"/>
<path d="M119.676 51.5282C119.528 51.5282 119.378 51.484 119.248 51.3922C118.913 51.1554 118.832 50.6914 119.069 50.3554L128.878 36.4247C129.114 36.0891 129.578 36.0086 129.913 36.2452C130.249 36.482 130.329 36.946 130.093 37.282L120.284 51.2127C120.139 51.4183 119.909 51.5282 119.676 51.5282Z" fill="url(#paint21_linear_2085_204)"/>
<defs>
<linearGradient id="paint0_linear_2085_204" x1="-9.74815" y1="104.828" x2="137.403" y2="82.9513" gradientUnits="userSpaceOnUse">
<stop offset="0.156893" stop-color="#C39D61"/>
<stop offset="0.4375" stop-color="#FFCB7A"/>
<stop offset="0.653846" stop-color="#DFAB5A"/>
<stop offset="1" stop-color="#9C7E4F"/>
</linearGradient>
<linearGradient id="paint1_linear_2085_204" x1="33.0991" y1="101.379" x2="107.127" y2="95.3347" gradientUnits="userSpaceOnUse">
<stop offset="0.156893" stop-color="#C39D61"/>
<stop offset="0.4375" stop-color="#FFCB7A"/>
<stop offset="0.653846" stop-color="#DFAB5A"/>
<stop offset="1" stop-color="#9C7E4F"/>
</linearGradient>
<linearGradient id="paint2_linear_2085_204" x1="50.5284" y1="88.2158" x2="93.8944" y2="84.6748" gradientUnits="userSpaceOnUse">
<stop offset="0.156893" stop-color="#C39D61"/>
<stop offset="0.4375" stop-color="#FFCB7A"/>
<stop offset="0.653846" stop-color="#DFAB5A"/>
<stop offset="1" stop-color="#9C7E4F"/>
</linearGradient>
<linearGradient id="paint3_linear_2085_204" x1="57.8188" y1="81.3543" x2="88.0291" y2="78.3669" gradientUnits="userSpaceOnUse">
<stop offset="0.156893" stop-color="#C39D61"/>
<stop offset="0.4375" stop-color="#FFCB7A"/>
<stop offset="0.653846" stop-color="#DFAB5A"/>
<stop offset="1" stop-color="#9C7E4F"/>
</linearGradient>
<linearGradient id="paint4_linear_2085_204" x1="18.9914" y1="44.5632" x2="40.1642" y2="43.52" gradientUnits="userSpaceOnUse">
<stop offset="0.156893" stop-color="#C39D61"/>
<stop offset="0.4375" stop-color="#FFCB7A"/>
<stop offset="0.653846" stop-color="#DFAB5A"/>
<stop offset="1" stop-color="#9C7E4F"/>
</linearGradient>
<linearGradient id="paint5_linear_2085_204" x1="49.2163" y1="36.5637" x2="62.2549" y2="36.2142" gradientUnits="userSpaceOnUse">
<stop offset="0.156893" stop-color="#C39D61"/>
<stop offset="0.4375" stop-color="#FFCB7A"/>
<stop offset="0.653846" stop-color="#DFAB5A"/>
<stop offset="1" stop-color="#9C7E4F"/>
</linearGradient>
<linearGradient id="paint6_linear_2085_204" x1="82.0717" y1="35.9482" x2="87.1824" y2="35.8976" gradientUnits="userSpaceOnUse">
<stop offset="0.156893" stop-color="#C39D61"/>
<stop offset="0.4375" stop-color="#FFCB7A"/>
<stop offset="0.653846" stop-color="#DFAB5A"/>
<stop offset="1" stop-color="#9C7E4F"/>
</linearGradient>
<linearGradient id="paint7_linear_2085_204" x1="103.353" y1="43.7425" x2="121.895" y2="42.9145" gradientUnits="userSpaceOnUse">
<stop offset="0.156893" stop-color="#C39D61"/>
<stop offset="0.4375" stop-color="#FFCB7A"/>
<stop offset="0.653846" stop-color="#DFAB5A"/>
<stop offset="1" stop-color="#9C7E4F"/>
</linearGradient>
<linearGradient id="paint8_linear_2085_204" x1="128.351" y1="64.2538" x2="148.31" y2="63.1348" gradientUnits="userSpaceOnUse">
<stop offset="0.156893" stop-color="#C39D61"/>
<stop offset="0.4375" stop-color="#FFCB7A"/>
<stop offset="0.653846" stop-color="#DFAB5A"/>
<stop offset="1" stop-color="#9C7E4F"/>
</linearGradient>
<linearGradient id="paint9_linear_2085_204" x1="-0.818587" y1="61.7929" x2="18.4151" y2="60.6601" gradientUnits="userSpaceOnUse">
<stop offset="0.156893" stop-color="#C39D61"/>
<stop offset="0.4375" stop-color="#FFCB7A"/>
<stop offset="0.653846" stop-color="#DFAB5A"/>
<stop offset="1" stop-color="#9C7E4F"/>
</linearGradient>
<linearGradient id="paint10_linear_2085_204" x1="149.071" y1="75.7302" x2="149.923" y2="70.1069" gradientUnits="userSpaceOnUse">
<stop offset="0.156893" stop-color="#C39D61"/>
<stop offset="0.4375" stop-color="#FFCB7A"/>
<stop offset="0.653846" stop-color="#DFAB5A"/>
<stop offset="1" stop-color="#9C7E4F"/>
</linearGradient>
<linearGradient id="paint11_linear_2085_204" x1="4.54382" y1="74.3125" x2="5.39623" y2="68.6892" gradientUnits="userSpaceOnUse">
<stop offset="0.156893" stop-color="#C39D61"/>
<stop offset="0.4375" stop-color="#FFCB7A"/>
<stop offset="0.653846" stop-color="#DFAB5A"/>
<stop offset="1" stop-color="#9C7E4F"/>
</linearGradient>
<linearGradient id="paint12_linear_2085_204" x1="15.8925" y1="39.2011" x2="19.5739" y2="34.8694" gradientUnits="userSpaceOnUse">
<stop offset="0.156893" stop-color="#C39D61"/>
<stop offset="0.4375" stop-color="#FFCB7A"/>
<stop offset="0.653846" stop-color="#DFAB5A"/>
<stop offset="1" stop-color="#9C7E4F"/>
</linearGradient>
<linearGradient id="paint13_linear_2085_204" x1="42.9384" y1="25.3771" x2="46.6198" y2="21.0455" gradientUnits="userSpaceOnUse">
<stop offset="0.156893" stop-color="#C39D61"/>
<stop offset="0.4375" stop-color="#FFCB7A"/>
<stop offset="0.653846" stop-color="#DFAB5A"/>
<stop offset="1" stop-color="#9C7E4F"/>
</linearGradient>
<linearGradient id="paint14_linear_2085_204" x1="132.074" y1="39.3833" x2="132.525" y2="33.7136" gradientUnits="userSpaceOnUse">
<stop offset="0.156893" stop-color="#C39D61"/>
<stop offset="0.4375" stop-color="#FFCB7A"/>
<stop offset="0.653846" stop-color="#DFAB5A"/>
<stop offset="1" stop-color="#9C7E4F"/>
</linearGradient>
<linearGradient id="paint15_linear_2085_204" x1="72.5203" y1="19.2133" x2="73.3727" y2="13.5901" gradientUnits="userSpaceOnUse">
<stop offset="0.156893" stop-color="#C39D61"/>
<stop offset="0.4375" stop-color="#FFCB7A"/>
<stop offset="0.653846" stop-color="#DFAB5A"/>
<stop offset="1" stop-color="#9C7E4F"/>
</linearGradient>
<linearGradient id="paint16_linear_2085_204" x1="101.217" y1="24.0744" x2="102.07" y2="18.4512" gradientUnits="userSpaceOnUse">
<stop offset="0.156893" stop-color="#C39D61"/>
<stop offset="0.4375" stop-color="#FFCB7A"/>
<stop offset="0.653846" stop-color="#DFAB5A"/>
<stop offset="1" stop-color="#9C7E4F"/>
</linearGradient>
<linearGradient id="paint17_linear_2085_204" x1="14.953" y1="51.3972" x2="28.5815" y2="50.5404" gradientUnits="userSpaceOnUse">
<stop offset="0.156893" stop-color="#C39D61"/>
<stop offset="0.4375" stop-color="#FFCB7A"/>
<stop offset="0.653846" stop-color="#DFAB5A"/>
<stop offset="1" stop-color="#9C7E4F"/>
</linearGradient>
<linearGradient id="paint18_linear_2085_204" x1="41.4731" y1="39.0633" x2="50.6946" y2="38.7203" gradientUnits="userSpaceOnUse">
<stop offset="0.156893" stop-color="#C39D61"/>
<stop offset="0.4375" stop-color="#FFCB7A"/>
<stop offset="0.653846" stop-color="#DFAB5A"/>
<stop offset="1" stop-color="#9C7E4F"/>
</linearGradient>
<linearGradient id="paint19_linear_2085_204" x1="69.6968" y1="35.1285" x2="72.9539" y2="35.0885" gradientUnits="userSpaceOnUse">
<stop offset="0.156893" stop-color="#C39D61"/>
<stop offset="0.4375" stop-color="#FFCB7A"/>
<stop offset="0.653846" stop-color="#DFAB5A"/>
<stop offset="1" stop-color="#9C7E4F"/>
</linearGradient>
<linearGradient id="paint20_linear_2085_204" x1="93.0271" y1="38.4913" x2="100.342" y2="38.2824" gradientUnits="userSpaceOnUse">
<stop offset="0.156893" stop-color="#C39D61"/>
<stop offset="0.4375" stop-color="#FFCB7A"/>
<stop offset="0.653846" stop-color="#DFAB5A"/>
<stop offset="1" stop-color="#9C7E4F"/>
</linearGradient>
<linearGradient id="paint21_linear_2085_204" x1="117.094" y1="51.5282" x2="130.306" y2="50.7369" gradientUnits="userSpaceOnUse">
<stop offset="0.156893" stop-color="#C39D61"/>
<stop offset="0.4375" stop-color="#FFCB7A"/>
<stop offset="0.653846" stop-color="#DFAB5A"/>
<stop offset="1" stop-color="#9C7E4F"/>
</linearGradient>
</defs>
</svg>
