<svg width="117" height="136" viewBox="0 0 117 136" fill="none" xmlns="http://www.w3.org/2000/svg">
<path d="M86.7914 134.124C86.6898 134.106 86.5927 134.058 86.5139 133.98L69.9028 117.395C66.7257 114.223 63.4406 110.943 61.1808 106.915C58.5143 102.163 57.4906 96.7851 56.5009 91.5846C54.4131 80.6181 52.2543 69.2779 50.148 57.8258C50.056 57.326 50.2423 56.8133 50.634 56.4874C51.0274 56.1605 51.546 56.0743 52.0201 56.257C56.1259 57.8381 59.3966 61.4178 60.5559 65.5991C60.918 66.9056 61.0863 68.2562 61.2491 69.5622C61.3743 70.5684 61.5041 71.6088 61.7211 72.6026C62.2808 75.1631 63.4083 76.7697 65.1598 77.4948C66.7669 71.1081 68.0322 64.5683 68.9225 58.0464C68.9611 57.7621 69.2228 57.5629 69.5067 57.6019C69.513 57.6028 69.5192 57.6037 69.5254 57.6047C69.7992 57.6521 69.9886 57.9086 69.9505 58.1866C69.0293 64.9353 67.7088 71.7033 66.0256 78.3026C65.9905 78.4396 65.9013 78.5565 65.7784 78.6262C65.6554 78.696 65.5089 78.7126 65.374 78.6719C62.9681 77.9517 61.3981 75.9845 60.7075 72.8251C60.4802 71.785 60.3476 70.7206 60.2194 69.6912C60.0614 68.4224 59.8978 67.1103 59.556 65.8774C58.483 62.0067 55.4528 58.692 51.6473 57.2266C51.4774 57.1617 51.3452 57.2465 51.2969 57.2865C51.2466 57.3283 51.1336 57.4461 51.1686 57.637C53.2744 69.0862 55.4328 80.4244 57.5202 91.3895C58.4945 96.5084 59.5021 101.801 62.0855 106.406C64.2752 110.309 67.5089 113.537 70.6358 116.659L87.2469 133.244C87.4496 133.446 87.4501 133.775 87.2477 133.979C87.1237 134.103 86.9522 134.151 86.7914 134.124Z" fill="url(#paint0_linear_2088_755)"/>
<path d="M72.4718 119.827C72.3868 119.812 72.3042 119.776 72.2326 119.718C68.4676 116.64 68.1622 112.34 67.839 107.787C67.5035 103.062 68.4519 98.3931 69.3693 93.8773L74.0402 70.8831C74.8596 66.8485 75.2967 62.7537 72.967 60.1339C71.2377 58.1889 68.5882 57.666 65.7834 57.1122C64.9196 56.9417 64.0266 56.7655 63.175 56.5449C59.6117 55.6213 56.3048 53.9911 53.863 51.9551C50.8625 49.4528 49.3149 46.4339 49.3843 43.2193C49.3504 42.9803 49.4881 42.7941 49.6178 42.7118C49.8512 42.564 50.1687 42.6362 50.3283 42.862C50.3567 42.9022 50.3792 42.9462 50.3952 42.9923C50.4488 43.1229 50.4492 43.2422 50.4202 43.3439C50.3635 49.4215 56.8893 53.8425 63.4353 55.5391C64.2575 55.7521 65.1354 55.9254 65.9845 56.0932C68.8341 56.6557 71.7807 57.2375 73.7421 59.4431C76.3753 62.4042 75.9301 66.7908 75.0571 71.0899L70.3862 94.0841C69.4826 98.5313 68.5485 103.13 68.874 107.713C69.1943 112.224 69.4706 116.119 72.889 118.913C73.1109 119.094 73.1437 119.422 72.9626 119.644C72.8397 119.794 72.6503 119.858 72.4718 119.827L72.4718 119.827Z" fill="url(#paint1_linear_2088_755)"/>
<path d="M100.199 118.15C100.106 118.134 100.017 118.092 99.9414 118.025C98.7685 116.969 89.6694 108.132 88.1888 104.368C87.0623 101.503 86.4329 99.037 86.2084 96.6064C85.2031 85.7193 85.2595 74.6839 86.3762 63.8066C86.7136 60.5213 86.8677 57.1496 84.7777 55.1862C83.9461 54.405 82.8767 53.9617 81.5649 53.4633C70.7005 49.3368 51.8704 43.3674 49.9881 43.6749C49.7046 43.7204 49.4387 43.5286 49.3925 43.2458C49.3466 42.9626 49.5386 42.6957 49.8214 42.6496C52.1941 42.2628 72.5473 48.9272 81.9333 52.492C83.0502 52.9165 84.4404 53.4445 85.4877 54.4285C87.9233 56.7166 87.772 60.3684 87.4083 63.9125C86.2984 74.7228 86.2421 85.6904 87.2415 96.5105C87.4567 98.8407 88.0644 101.216 89.1542 103.987C90.4758 107.347 98.9239 115.712 100.635 117.252C100.848 117.444 100.865 117.772 100.674 117.986C100.55 118.123 100.369 118.18 100.199 118.15L100.199 118.15Z" fill="url(#paint2_linear_2088_755)"/>
<path d="M81.4152 53.3179C81.373 53.3106 81.3309 53.2979 81.2901 53.2794C81.0289 53.1615 80.9128 52.8539 81.0305 52.5924C82.0566 50.3151 80.8655 47.6028 79.325 46.0463C77.6184 44.3225 75.2789 43.3019 73.0164 42.315L72.7966 42.2192C64.114 38.4278 55.5855 34.0433 47.4476 29.1878C47.3501 29.1296 47.2573 29.1548 47.222 29.1682C47.1808 29.1838 47.1077 29.2242 47.0778 29.319C46.665 30.6273 46.8461 32.0825 47.5874 33.4169C48.4104 34.8982 49.7487 36.0857 51.0489 37.1748C55.7178 41.0856 61.031 44.3179 65.1384 46.697C65.3864 46.8406 65.471 47.1584 65.3273 47.4066C65.1839 47.655 64.8666 47.7404 64.6185 47.596C60.475 45.1962 55.1127 41.9333 50.3828 37.9715C49.008 36.8198 47.5897 35.5586 46.6805 33.9219C45.7992 32.3356 45.5889 30.5899 46.0883 29.0064C46.2062 28.6325 46.4848 28.3375 46.8527 28.1971C47.2258 28.0545 47.6362 28.0903 47.979 28.295C56.0797 33.1282 64.5693 37.4925 73.212 41.2665L73.4313 41.3622C75.7834 42.3881 78.2156 43.4494 80.0622 45.3144C81.9044 47.1754 83.2108 50.2793 81.9766 53.0189C81.877 53.2395 81.6431 53.357 81.4155 53.3176L81.4152 53.3179Z" fill="url(#paint3_linear_2088_755)"/>
<path d="M80.3595 47.0746C80.2217 47.0507 80.094 46.9715 80.0122 46.8447C72.5581 35.2938 64.259 26.2534 54.6406 19.2073C54.268 18.9344 53.7962 18.8941 53.3785 19.0991C52.9705 19.2997 52.7198 19.6874 52.7079 20.1366C52.5469 26.1737 55.3028 31.9448 59.7282 34.8399C59.9681 34.9966 60.0354 35.3186 59.8786 35.5587C59.7219 35.7989 59.4002 35.8668 59.1605 35.7094C54.4403 32.6218 51.5005 26.4985 51.6707 20.1091C51.6932 19.2669 52.1607 18.5407 52.9215 18.1668C53.6804 17.7939 54.5744 17.8713 55.2535 18.3688C64.9761 25.4913 73.3597 34.6212 80.8837 46.2805C81.0391 46.5216 80.9702 46.843 80.7295 46.9987C80.6154 47.0724 80.4832 47.096 80.3595 47.0746Z" fill="url(#paint4_linear_2088_755)"/>
<path d="M80.2493 46.928C80.0754 46.8981 79.9212 46.7797 79.8531 46.6028C75.6934 35.782 71.2878 27.375 66.3847 20.9012C66.1025 20.5287 65.6832 20.4787 65.3849 20.5557C65.0051 20.654 64.7448 20.9424 64.689 21.3276C64.372 23.513 64.764 25.6819 65.7927 27.435C65.9377 27.6824 65.8551 28.0006 65.6079 28.1462C65.3607 28.2914 65.0428 28.2088 64.8978 27.9615C63.7502 26.0058 63.3114 23.597 63.6621 21.1788C63.7785 20.3773 64.3392 19.7531 65.1259 19.5499C65.9192 19.345 66.718 19.6222 67.2114 20.2734C72.1744 26.8257 76.6264 35.3161 80.8217 46.2293C80.9246 46.497 80.7914 46.7976 80.5238 46.9007C80.4333 46.9356 80.3386 46.9433 80.2495 46.9279L80.2493 46.928Z" fill="url(#paint5_linear_2088_755)"/>
<path d="M61.7657 84.5472C61.7383 84.5424 61.7109 84.5354 61.6837 84.5261C61.4129 84.4322 61.2696 84.1363 61.3633 83.8653C62.9684 79.2301 66.9057 75.5623 71.6392 74.2933C71.9162 74.2194 72.2003 74.3836 72.2744 74.6607C72.3482 74.9378 72.184 75.2225 71.907 75.2967C67.502 76.4778 63.8374 79.8912 62.3437 84.205C62.2592 84.4489 62.0116 84.5897 61.7657 84.5472Z" fill="url(#paint6_linear_2088_755)"/>
<path d="M37.0774 81.6955C37.0685 81.6967 37.0595 81.6977 37.0505 81.6982C34.438 81.9045 31.9086 81.1743 30.2467 80.5254C23.0688 77.7238 17.1297 71.7523 14.3596 64.5518C14.2766 64.3357 14.3461 64.0907 14.5304 63.951L16.28 62.6255C9.46753 57.8712 4.85016 50.1837 3.87774 41.9159C3.84644 41.649 4.0235 41.4023 4.28602 41.3467C4.54905 41.293 4.8102 41.4456 4.88889 41.7025C5.9272 45.087 8.22933 48.0591 11.2135 49.9574C4.25283 39.1207 0.584491 27.0955 0.0110339 13.2674C-0.110367 10.344 0.787368 2.53759 1.84937 0.296887C1.96679 0.0494593 2.25574 -0.0644677 2.50979 0.0369968C10.1761 3.09045 11.8273 4.09715 16.1538 7.44652C20.6633 10.9346 23.7397 15.8817 26.154 20.261C27.6857 23.0364 29.191 26.0488 29.8293 29.2695C30.2621 31.4609 30.2441 33.5765 29.7968 35.4782C30.4126 34.4165 30.8667 33.2604 31.1289 32.0627C31.173 31.8617 31.3316 31.7055 31.533 31.6647C31.734 31.6243 31.9412 31.7062 32.0596 31.8745C35.6882 37.0258 37.5932 42.9123 37.4898 48.4439C38.0444 47.4592 38.6959 46.5283 39.4281 45.6808C39.5464 45.5435 39.7278 45.4784 39.9066 45.5081C40.0853 45.5381 40.2354 45.6595 40.3025 45.8278C43.2486 53.2156 44.897 60.9907 45.2017 68.9369C45.3323 72.3161 45.129 77.1239 41.8698 79.8497C41.43 80.2166 40.9511 80.5319 40.4458 80.7873C40.1902 80.9167 39.8781 80.8136 39.7489 80.5577C39.6197 80.3017 39.7224 79.9891 39.9782 79.8598C40.4133 79.6399 40.8261 79.3682 41.205 79.0519C44.113 76.6198 44.2869 72.137 44.1648 68.9767C43.8759 61.444 42.3611 54.0673 39.6611 47.0367C38.5939 48.4224 37.7458 50.0017 37.1881 51.6493C37.1012 51.9058 36.8328 52.0523 36.5708 51.9866C36.3087 51.921 36.1409 51.6651 36.1847 51.3981C37.1379 45.6036 35.5584 39.1029 31.8427 33.4039C31.164 35.5437 29.9209 37.5084 28.2708 39.0245C28.0785 39.2014 27.7851 39.2075 27.5854 39.0388C27.3858 38.8704 27.3424 38.5796 27.4839 38.3601C29.0056 35.9991 29.4768 32.8421 28.811 29.4709C28.2003 26.3899 26.7365 23.4647 25.2452 20.7626C22.8819 16.4763 19.8785 11.6401 15.5188 8.26774C11.3782 5.06226 9.73887 4.04917 2.60369 1.19241C1.70373 3.73716 0.937448 10.5836 1.04709 13.2238C1.6432 27.5952 5.62524 39.9873 13.2208 51.1083C13.3522 51.3005 13.3394 51.5567 13.19 51.7352C13.0404 51.9136 12.7907 51.9711 12.5787 51.8746C9.77504 50.6049 7.37433 48.4865 5.7105 45.8988C7.52392 52.4933 11.7304 58.3896 17.4553 62.1679C17.5959 62.2607 17.6827 62.416 17.6883 62.5845C17.6938 62.753 17.6172 62.9136 17.483 63.0154L15.4702 64.5404C18.195 71.3103 23.8335 76.9062 30.6232 79.5564C32.1841 80.1659 34.552 80.8524 36.9686 80.6616C37.2543 80.6391 37.5042 80.8526 37.5267 81.1386C37.5485 81.4157 37.349 81.6589 37.077 81.6944L37.0774 81.6955Z" fill="url(#paint7_linear_2088_755)"/>
<path d="M43.8704 115.166C43.8627 115.167 43.8549 115.168 43.8471 115.169C43.3535 115.227 42.8892 115.088 42.5044 114.767C41.5273 113.952 41.3473 112.245 41.3153 111.741C40.7913 103.478 40.0593 94.0299 37.997 86.4795C35.4313 77.0871 32.2891 68.308 27.4899 57.1241C19.7456 39.0769 11.1618 21.1253 2.86082 3.76483L1.70646 1.35063C1.58576 1.09818 1.6866 0.795505 1.93442 0.665818C2.18206 0.53665 2.48799 0.626692 2.62582 0.87031C15.4022 23.4451 25.2454 42.8264 33.6029 61.8641C38.9807 74.1148 39.786 76.9207 41.7319 83.6994C41.9585 84.4883 42.2002 85.3308 42.4667 86.2487C44.819 94.3511 47.4852 103.535 45.8957 112.447C45.526 114.518 44.5956 115.072 43.8704 115.166ZM10.0064 16.331C16.3075 29.5946 22.6117 43.1244 28.4435 56.7139C33.2626 67.9444 36.4192 76.7642 38.998 86.2054C41.0862 93.8502 41.8238 103.361 42.351 111.675C42.4166 112.709 42.7377 113.61 43.1692 113.97C43.3364 114.109 43.5133 114.163 43.7257 114.137C43.7286 114.137 43.7319 114.137 43.7349 114.136C44.4522 114.043 44.7566 112.924 44.8745 112.264C46.4213 103.591 43.7911 94.5319 41.4706 86.5387C41.2038 85.6198 40.9617 84.7764 40.735 83.9865C38.8027 77.2552 38.0029 74.4691 32.6531 62.2825C26.2116 47.6087 18.8839 32.7274 10.0064 16.331Z" fill="url(#paint8_linear_2088_755)"/>
<defs>
<linearGradient id="paint0_linear_2088_755" x1="30.3343" y1="124.357" x2="88.2197" y2="131.058" gradientUnits="userSpaceOnUse">
<stop offset="0.156893" stop-color="#C39D61"/>
<stop offset="0.4375" stop-color="#FFCB7A"/>
<stop offset="0.653846" stop-color="#DFAB5A"/>
<stop offset="1" stop-color="#9C7E4F"/>
</linearGradient>
<linearGradient id="paint1_linear_2088_755" x1="31.3302" y1="112.71" x2="73.6065" y2="118.245" gradientUnits="userSpaceOnUse">
<stop offset="0.156893" stop-color="#C39D61"/>
<stop offset="0.4375" stop-color="#FFCB7A"/>
<stop offset="0.653846" stop-color="#DFAB5A"/>
<stop offset="1" stop-color="#9C7E4F"/>
</linearGradient>
<linearGradient id="paint2_linear_2088_755" x1="28.0895" y1="105.676" x2="101.941" y2="112.554" gradientUnits="userSpaceOnUse">
<stop offset="0.156893" stop-color="#C39D61"/>
<stop offset="0.4375" stop-color="#FFCB7A"/>
<stop offset="0.653846" stop-color="#DFAB5A"/>
<stop offset="1" stop-color="#9C7E4F"/>
</linearGradient>
<linearGradient id="paint3_linear_2088_755" x1="36.6137" y1="45.5679" x2="82.5311" y2="45.6862" gradientUnits="userSpaceOnUse">
<stop offset="0.156893" stop-color="#C39D61"/>
<stop offset="0.4375" stop-color="#FFCB7A"/>
<stop offset="0.653846" stop-color="#DFAB5A"/>
<stop offset="1" stop-color="#9C7E4F"/>
</linearGradient>
<linearGradient id="paint4_linear_2088_755" x1="42.5902" y1="40.541" x2="81.4932" y2="42.8428" gradientUnits="userSpaceOnUse">
<stop offset="0.156893" stop-color="#C39D61"/>
<stop offset="0.4375" stop-color="#FFCB7A"/>
<stop offset="0.653846" stop-color="#DFAB5A"/>
<stop offset="1" stop-color="#9C7E4F"/>
</linearGradient>
<linearGradient id="paint5_linear_2088_755" x1="56.4081" y1="42.8038" x2="81.1683" y2="45.3063" gradientUnits="userSpaceOnUse">
<stop offset="0.156893" stop-color="#C39D61"/>
<stop offset="0.4375" stop-color="#FFCB7A"/>
<stop offset="0.653846" stop-color="#DFAB5A"/>
<stop offset="1" stop-color="#9C7E4F"/>
</linearGradient>
<linearGradient id="paint6_linear_2088_755" x1="59.7715" y1="84.2022" x2="70.5303" y2="85.364" gradientUnits="userSpaceOnUse">
<stop offset="0.156893" stop-color="#C39D61"/>
<stop offset="0.4375" stop-color="#FFCB7A"/>
<stop offset="0.653846" stop-color="#DFAB5A"/>
<stop offset="1" stop-color="#9C7E4F"/>
</linearGradient>
<linearGradient id="paint7_linear_2088_755" x1="-7.36562" y1="81.7338" x2="45.6205" y2="79.3367" gradientUnits="userSpaceOnUse">
<stop offset="0.156893" stop-color="#C39D61"/>
<stop offset="0.4375" stop-color="#FFCB7A"/>
<stop offset="0.653846" stop-color="#DFAB5A"/>
<stop offset="1" stop-color="#9C7E4F"/>
</linearGradient>
<linearGradient id="paint8_linear_2088_755" x1="-5.62723" y1="115.182" x2="46.8166" y2="113.509" gradientUnits="userSpaceOnUse">
<stop offset="0.156893" stop-color="#C39D61"/>
<stop offset="0.4375" stop-color="#FFCB7A"/>
<stop offset="0.653846" stop-color="#DFAB5A"/>
<stop offset="1" stop-color="#9C7E4F"/>
</linearGradient>
</defs>
</svg>
