<svg width="115" height="141" viewBox="0 0 115 141" fill="none" xmlns="http://www.w3.org/2000/svg">
<path d="M72.8724 75.1505C72.7879 75.1505 72.702 75.1287 72.6239 75.0828C72.3898 74.945 72.3117 74.6435 72.4491 74.4093L75.6044 69.0321C75.7418 68.7979 76.0431 68.7195 76.277 68.8571C76.511 68.9949 76.5892 69.2964 76.4517 69.5305L73.2965 74.9078C73.2049 75.0637 73.0409 75.1505 72.8724 75.1505Z" fill="url(#paint0_linear_2085_568)"/>
<path d="M41.8371 122.028C41.6208 122.028 41.4234 121.884 41.3636 121.666L36.74 104.829C36.7181 104.749 36.7166 104.665 36.7359 104.585L49.951 49.1893C49.9598 49.1524 49.9728 49.1168 49.9898 49.083L60.7803 27.5612C60.8469 27.4282 60.97 27.3327 61.1149 27.3011C61.26 27.2694 61.4116 27.3052 61.5272 27.3983L77.2189 40.0224C77.3509 40.1285 77.4191 40.2953 77.3993 40.4636L69.4104 108.226C69.3786 108.496 69.1346 108.687 68.8648 108.657C68.5953 108.625 68.4025 108.381 68.4343 108.111L76.3912 40.6189L61.3857 28.547L50.8936 49.4739L37.7212 104.691L42.186 120.949L67.0586 115.098C67.3228 115.035 67.5873 115.2 67.6494 115.465C67.7115 115.729 67.5477 115.994 67.2835 116.056L41.95 122.015C41.9123 122.024 41.8745 122.028 41.8375 122.028L41.8371 122.028Z" fill="url(#paint1_linear_2085_568)"/>
<path d="M57.2105 124.974C57.0272 124.974 56.8551 124.871 56.7707 124.701C56.6695 124.498 56.7209 124.251 56.8951 124.105L66.7511 115.833C66.6851 115.724 66.6606 115.59 66.6937 115.457C66.7593 115.194 67.0269 115.034 67.2895 115.099L67.7909 115.224C67.9702 115.269 68.1093 115.411 68.1507 115.591C68.1922 115.772 68.1293 115.96 67.9876 116.079L59.091 123.546L80.9194 118.537L104.817 79.2966L92.7761 44.9258C92.7738 44.9191 92.7715 44.9122 92.7695 44.9055L92.7407 44.8239L75.5918 55.7928L69.4102 108.226C69.3784 108.496 69.1344 108.687 68.8646 108.657C68.5951 108.625 68.4023 108.38 68.4341 108.11L74.6431 55.4461C74.6603 55.2994 74.7424 55.1686 74.8665 55.089L92.7335 43.6608C92.86 43.5802 93.0164 43.5613 93.1581 43.6104C93.2999 43.6592 93.4116 43.7702 93.4614 43.9119L93.7019 44.5938C93.7047 44.6017 93.7073 44.6099 93.7098 44.6178L105.821 79.1908C105.87 79.33 105.854 79.4839 105.777 79.6098L81.6508 119.226C81.5818 119.34 81.4703 119.42 81.3414 119.45L81.126 119.5L57.3204 124.961C57.2837 124.97 57.2469 124.974 57.2105 124.974Z" fill="url(#paint2_linear_2085_568)"/>
<path d="M87.5204 77.5663C87.4231 77.5663 87.3264 77.5375 87.2437 77.4809L75.5951 69.5338C75.4873 69.4602 75.4131 69.3465 75.3888 69.2183C75.3648 69.0898 75.3924 68.957 75.4663 68.8493L92.5928 43.7976C92.7228 43.6072 92.9679 43.5331 93.1816 43.619C93.3955 43.7051 93.5207 43.9285 93.483 44.1561L88.0052 77.1549C87.9777 77.3205 87.8678 77.4606 87.7136 77.5266C87.6517 77.553 87.5859 77.5662 87.5205 77.5662L87.5204 77.5663ZM76.5554 68.9983L87.1616 76.2343L92.1494 46.1884L76.5554 68.9983Z" fill="url(#paint3_linear_2085_568)"/>
<path d="M104.895 79.9293C104.873 79.9293 104.851 79.9278 104.828 79.9249L87.3983 77.5656C87.1293 77.5292 86.9408 77.2815 86.9771 77.0121C87.0135 76.7428 87.2626 76.5547 87.53 76.5906L104.96 78.9499C105.229 78.9863 105.417 79.2339 105.381 79.5034C105.348 79.7502 105.137 79.9293 104.895 79.9293Z" fill="url(#paint4_linear_2085_568)"/>
<path d="M75.8947 69.5104C75.7757 69.5104 75.6561 69.467 75.5614 69.3798L73.4363 67.4148C73.2369 67.2304 73.2246 66.9191 73.4087 66.7196C73.5927 66.5198 73.9036 66.5075 74.1033 66.6918L76.2284 68.6569C76.4277 68.8412 76.44 69.1527 76.2559 69.3521C76.1591 69.4572 76.0271 69.5104 75.8947 69.5104Z" fill="url(#paint5_linear_2085_568)"/>
<path d="M81.1793 119.553C81.1405 119.553 81.101 119.548 81.0614 119.538L80.8982 119.498L67.5535 116.179C67.2901 116.114 67.1295 115.847 67.1951 115.583C67.2606 115.32 67.5276 115.159 67.7905 115.224L81.2964 118.583C81.56 118.648 81.721 118.914 81.6562 119.178C81.601 119.402 81.4003 119.553 81.1793 119.553Z" fill="url(#paint6_linear_2085_568)"/>
<path d="M39.111 140.162C39.0286 140.162 38.9457 140.141 38.8707 140.099C38.6925 139.999 38.5947 139.799 38.6251 139.597L41.3513 121.462C41.3812 121.263 41.5291 121.103 41.7249 121.057L67.0582 115.098C67.1344 115.08 67.2138 115.08 67.2897 115.099L67.791 115.224C67.9704 115.269 68.1095 115.411 68.1509 115.591C68.1924 115.772 68.1294 115.96 67.9878 116.079L57.5265 124.859L39.4268 140.047C39.3362 140.123 39.224 140.162 39.111 140.162ZM42.2736 121.938L39.7903 138.458L56.8952 124.105L66.175 116.316L42.2736 121.938Z" fill="url(#paint7_linear_2085_568)"/>
<path d="M68.9217 108.66C68.8358 108.66 68.7487 108.637 68.6696 108.59C68.4368 108.45 68.3611 108.148 68.5005 107.915L87.0117 76.9789C87.1511 76.7459 87.4529 76.6701 87.6859 76.8098C87.9187 76.9496 87.9944 77.2515 87.855 77.4847L69.3438 108.421C69.2517 108.575 69.0888 108.66 68.9217 108.66Z" fill="url(#paint8_linear_2085_568)"/>
<path d="M39.1111 140.162C38.9596 140.162 38.8137 140.092 38.7195 139.967L22.0268 117.916C21.9592 117.827 21.9239 117.717 21.9272 117.605L24.0217 44.5491C24.023 44.5045 24.0302 44.4605 24.0433 44.4179L29.8769 25.5164C29.8982 25.4474 29.9346 25.3837 29.9831 25.3303L52.8867 0.160874C52.9916 0.045582 53.1452 -0.0139483 53.2998 0.00277975C53.4548 0.0186877 53.593 0.107084 53.6725 0.241072L77.3332 40.1544C77.4544 40.3589 77.4122 40.6211 77.2326 40.7771C77.0533 40.9331 76.7881 40.938 76.6027 40.7891L61.3852 28.5465L50.8933 49.4734L37.7206 104.69L42.3108 121.405C42.329 121.472 42.3331 121.541 42.3229 121.609L39.5968 139.743C39.5675 139.939 39.4238 140.098 39.2324 140.147C39.1921 140.157 39.1514 140.162 39.1111 140.162ZM22.9146 117.46L38.7988 138.443L41.3359 121.566L36.7398 104.829C36.7179 104.749 36.7164 104.665 36.7357 104.585L49.9508 49.1893C49.9596 49.1524 49.9726 49.1168 49.9896 49.083L60.7799 27.5612C60.8466 27.4282 60.9696 27.3327 61.1146 27.3011C61.2594 27.2694 61.4112 27.3052 61.5268 27.3983L75.1031 38.3205L53.1663 1.31526L30.7835 25.9122L25.0022 44.6447L22.9146 117.46V117.46Z" fill="url(#paint9_linear_2085_568)"/>
<path d="M67.6721 116.194C67.6325 116.194 67.5925 116.189 67.5532 116.179L67.0518 116.054C66.7884 115.988 66.6282 115.721 66.6939 115.457C66.7598 115.194 67.0271 115.034 67.2897 115.099L67.5485 115.164L67.6089 115.113L68.4341 108.11C68.4659 107.84 68.7111 107.648 68.9798 107.679C69.2492 107.711 69.442 107.956 69.4102 108.226L68.5622 115.423C68.5475 115.547 68.4857 115.662 68.3896 115.742L67.9876 116.079C67.8982 116.154 67.7863 116.194 67.6723 116.194L67.6721 116.194Z" fill="url(#paint10_linear_2085_568)"/>
<path d="M50.429 49.7958C50.2387 49.7958 50.0575 49.6844 49.9776 49.4984L42.2541 31.5577L24.8123 44.9535C24.5969 45.119 24.2885 45.0781 24.1232 44.8626C23.9581 44.6472 23.9987 44.3382 24.2141 44.1729L42.1566 30.3926C42.2768 30.3003 42.4328 30.2688 42.5795 30.3068C42.7261 30.345 42.847 30.4488 42.907 30.5882L50.8803 49.1091C50.9877 49.3586 50.8727 49.6482 50.6236 49.7556C50.5602 49.783 50.4942 49.7959 50.4293 49.7959L50.429 49.7958Z" fill="url(#paint11_linear_2085_568)"/>
<path d="M42.456 31.2751C42.4018 31.2751 42.3467 31.2659 42.2925 31.2469C42.0367 31.1565 41.9022 30.8756 41.9924 30.6194L52.3343 1.24617C52.4245 0.989835 52.7051 0.855698 52.9611 0.945734C53.217 1.0361 53.3515 1.31702 53.2612 1.57319L42.9194 30.9464C42.8481 31.1486 42.6584 31.2751 42.4558 31.2751H42.456Z" fill="url(#paint12_linear_2085_568)"/>
<path d="M61.2192 28.2734C61.0081 28.2734 60.8131 28.1361 60.7489 27.9234L52.641 1.05411C52.5625 0.794008 52.7095 0.51949 52.9692 0.440934C53.2292 0.362706 53.5034 0.509651 53.5817 0.769755L61.6896 27.639C61.7681 27.8991 61.6212 28.1737 61.3614 28.2522C61.314 28.2665 61.2662 28.2734 61.219 28.2734H61.2192Z" fill="url(#paint13_linear_2085_568)"/>
<path d="M67.1703 116.069C66.9472 116.069 66.7453 115.916 66.6922 115.689C66.6304 115.424 66.7946 115.159 67.0588 115.098L67.9621 114.886C68.2265 114.824 68.4907 114.989 68.5525 115.253C68.6142 115.517 68.4501 115.782 68.1859 115.844L67.2825 116.056C67.245 116.064 67.2073 116.069 67.1702 116.069L67.1703 116.069Z" fill="url(#paint14_linear_2085_568)"/>
<path d="M22.8032 117.753C22.6659 117.753 22.5295 117.695 22.4323 117.584C22.2541 117.379 22.2756 117.068 22.4803 116.89L36.8911 104.328C37.0957 104.149 37.4063 104.171 37.5843 104.376C37.7625 104.581 37.7411 104.892 37.5363 105.07L23.1255 117.632C23.0325 117.713 22.9175 117.753 22.8032 117.753Z" fill="url(#paint15_linear_2085_568)"/>
<path d="M21.7673 78.7247C16.9562 78.7247 12.1569 77.6544 7.80206 75.6005C4.43647 74.013 2.23368 72.1312 1.06792 69.847C-0.237894 67.2886 -0.346657 64.0019 0.744251 60.078C1.08938 58.8364 1.51968 57.6046 1.93573 56.4133C2.55981 54.6265 3.20518 52.7789 3.55489 50.9075C4.21665 47.3659 3.5752 44.1974 1.79519 42.2148C1.62222 42.0221 1.62795 41.7284 1.80829 41.5428C1.98864 41.3571 2.28184 41.3432 2.47889 41.5111C4.99977 43.6575 8.56734 43.9121 12.0173 44.1584C12.5971 44.1997 13.1968 44.2425 13.7783 44.2937C17.7118 44.6396 21.016 45.2582 24.7329 49.7085C24.907 49.9169 24.8794 50.2272 24.6712 50.4017C24.463 50.5757 24.1531 50.5483 23.979 50.3399C20.4972 46.171 17.5192 45.6105 13.6921 45.2738C13.1188 45.2233 12.5231 45.1809 11.9472 45.1398C9.14555 44.9399 6.26971 44.7345 3.82909 43.5501C4.79453 45.6239 5.0499 48.2556 4.52066 51.0885C4.15735 53.0334 3.49937 54.9169 2.86317 56.7382C2.45236 57.9147 2.0273 59.1311 1.69069 60.3421C0.66792 64.0206 0.752604 67.0679 1.94261 69.3993C3.00567 71.4821 5.05923 73.2194 8.22041 74.7105C12.8584 76.8979 18.0175 77.9347 23.1388 77.7108C23.4112 77.6972 23.6394 77.9093 23.6512 78.1808C23.6631 78.4523 23.453 78.682 23.1817 78.6938C22.7105 78.7145 22.2381 78.7249 21.7667 78.7249L21.7673 78.7247Z" fill="url(#paint16_linear_2085_568)"/>
<path d="M26.5451 38.4696C26.454 38.4696 26.3619 38.4443 26.2797 38.3914C23.9316 36.8788 21.4637 35.2107 19.3665 32.9249C17.0332 30.3818 15.7809 27.4322 15.8404 24.6196C15.8882 22.3584 16.7574 20.2544 17.5977 18.2197C17.8497 17.6094 18.1103 16.9784 18.3415 16.3588C19.6553 12.8374 20.2396 9.00337 20.0368 5.24777C20.025 5.12559 20.0176 5.0021 20.0147 4.87681C20.0085 4.60932 20.2168 4.38595 20.4838 4.37397C20.7501 4.35987 20.9783 4.56569 20.9962 4.83252C21.0035 4.94175 21.0103 5.05145 21.0163 5.16084C21.2445 7.40338 23.3667 9.07668 25.1798 9.84748C26.3742 10.3554 27.6771 10.6767 28.9372 10.9873C30.0465 11.2608 31.1935 11.5437 32.2925 11.9559C35.2482 13.065 37.2219 15.1058 37.5721 17.4149L37.6353 17.9297C37.6682 18.1995 37.4766 18.4449 37.2071 18.4778C36.938 18.5123 36.6926 18.3191 36.6597 18.0493L36.5986 17.5486C36.3046 15.6111 34.5652 13.8596 31.9477 12.8776C30.9026 12.4853 29.784 12.2096 28.7023 11.9429C27.4047 11.6229 26.0628 11.292 24.7957 10.7534C23.4168 10.1671 21.9718 9.17934 21.0358 7.85209C20.9144 10.8713 20.3141 13.884 19.262 16.7033C19.0248 17.3388 18.761 17.9779 18.5058 18.5959C17.7 20.5468 16.8668 22.5639 16.8229 24.6406C16.7688 27.1983 17.9292 29.9042 20.0902 32.2595C22.1082 34.4593 24.5171 36.0862 26.8112 37.564C27.0396 37.7109 27.1054 38.0154 26.9587 38.2439C26.8648 38.3902 26.7066 38.4698 26.5449 38.4698L26.5451 38.4696Z" fill="url(#paint17_linear_2085_568)"/>
<path d="M94.2862 27.6894C94.2736 27.6894 94.261 27.6889 94.2482 27.6879C93.9945 27.6684 93.7976 27.4581 93.7945 27.2033C93.7917 26.9727 93.8074 26.7434 93.8405 26.5169C93.8167 25.7599 93.5216 25.0155 93.0236 24.5125C92.5417 24.0256 91.8677 23.7455 91.1861 23.7237C90.9617 23.7673 90.7342 23.7899 90.5068 23.7903C90.497 23.7927 90.4872 23.795 90.4774 23.7975C90.3722 23.8236 90.2615 23.8142 90.162 23.7706C90.1594 23.7702 90.1499 23.7683 90.1404 23.766C89.8918 23.7043 89.7321 23.4618 89.7737 23.2087C89.8151 22.9557 90.0431 22.7776 90.2991 22.7979C90.3363 22.8012 90.3735 22.8033 90.4109 22.8046C90.6354 22.7608 90.8639 22.7395 91.0921 22.7395C91.811 22.576 92.4842 22.1211 92.9276 21.4682C93.2325 21.0195 93.4181 20.4957 93.4767 19.9581C93.3525 19.3885 93.2972 18.816 93.2651 18.301C93.2498 18.0577 93.4151 17.8397 93.6536 17.7892C93.8916 17.7375 94.1312 17.8704 94.2163 18.0993C94.4271 18.6677 94.509 19.2786 94.4682 19.8815C94.6261 20.5455 94.8615 21.0457 95.1886 21.4305C95.7804 22.1268 96.7344 22.505 97.6418 22.4087C97.7381 22.3667 97.8636 22.3462 98.0199 22.3846C98.2462 22.441 98.4018 22.6488 98.3925 22.8822C98.383 23.1156 98.211 23.3099 97.9809 23.3478C97.9751 23.3488 97.9694 23.3498 97.9637 23.3508C97.9365 23.3598 97.9081 23.3665 97.8791 23.3706C97.858 23.3737 97.8371 23.3763 97.8159 23.3791C96.3078 23.7038 95.081 25.0434 94.8262 26.5686C94.8284 26.8047 94.8104 27.0424 94.7712 27.2779C94.7316 27.5167 94.525 27.689 94.287 27.689L94.2862 27.6894ZM92.677 23.0908C93.0639 23.2702 93.4202 23.5156 93.7214 23.8198C94.01 24.1112 94.2469 24.4546 94.4264 24.8302C94.8059 24.1619 95.337 23.5772 95.9656 23.141C95.3789 22.9134 94.8459 22.5467 94.4395 22.0683C94.288 21.89 94.1565 21.6989 94.0418 21.4985C93.954 21.6796 93.8534 21.8548 93.7399 22.0217C93.4515 22.4463 93.0875 22.8074 92.677 23.0905V23.0908Z" fill="url(#paint18_linear_2085_568)"/>
<path d="M23.3427 68.7131C23.2715 68.7131 23.1991 68.6974 23.1305 68.6644C22.7346 68.4742 22.3331 68.2879 21.9306 68.1012C19.4115 66.9324 16.8066 65.7237 15.2671 63.3956C14.2908 61.9192 13.8902 60.1962 13.5028 58.5302C13.3216 57.751 13.1342 56.9453 12.8913 56.1879C11.2451 51.0567 6.71557 47.1679 3.0761 44.0432C2.87004 43.8664 2.84629 43.5557 3.02286 43.3494C3.19944 43.1434 3.50968 43.1193 3.71574 43.2962C7.44923 46.5016 12.0957 50.4907 13.8269 55.887C14.0821 56.6827 14.2741 57.5085 14.4599 58.307C14.8445 59.9611 15.2078 61.5235 16.0866 62.8522C17.4725 64.948 19.949 66.0971 22.3439 67.2082C22.7503 67.3967 23.1557 67.5849 23.5557 67.7773C23.8004 67.8949 23.9034 68.1888 23.786 68.4336C23.7015 68.6099 23.5257 68.7129 23.3426 68.7129L23.3427 68.7131Z" fill="url(#paint19_linear_2085_568)"/>
<path d="M30.089 26.988C29.8177 26.988 29.5978 26.7679 29.5976 26.4963C29.5964 24.4378 28.288 22.636 27.0225 20.8935C26.9036 20.7299 26.785 20.5665 26.6677 20.4035C26.1129 19.6317 25.5014 18.8729 24.9101 18.139C24.0032 17.0137 23.0652 15.8497 22.2856 14.5866C21.1937 12.8175 20.0169 10.1232 20.612 7.33354C20.6687 7.06786 20.9303 6.89877 21.1951 6.95519C21.4607 7.01193 21.6297 7.27335 21.573 7.5392C21.0461 10.0092 22.1244 12.4536 23.1216 14.0692C23.8688 15.2798 24.7871 16.4191 25.6751 17.5211C26.2747 18.2653 26.8949 19.0346 27.4656 19.8284C27.5819 19.9903 27.6995 20.1523 27.8176 20.3148C29.1753 22.1842 30.5791 24.1176 30.5806 26.4956C30.5806 26.7674 30.3609 26.9878 30.0893 26.988H30.089Z" fill="url(#paint20_linear_2085_568)"/>
<path d="M13.8313 57.5507C13.7433 57.5507 13.6544 57.527 13.5741 57.4777C13.343 57.3351 13.2711 57.0321 13.4134 56.8007C15.7482 53.0049 16.3631 48.7581 15.1006 45.1493C15.011 44.8927 15.1458 44.6122 15.4019 44.5223C15.658 44.4321 15.9382 44.5674 16.0282 44.8239C17.389 48.714 16.741 53.2673 14.2503 57.3168C14.1576 57.4677 13.9964 57.5508 13.8314 57.5508L13.8313 57.5507Z" fill="url(#paint21_linear_2085_568)"/>
<path d="M17.7455 65.5184C17.6378 65.5184 17.5294 65.4832 17.4388 65.4107C17.2269 65.2409 17.1926 64.9313 17.362 64.7191C22.2062 58.6555 22.3079 53.9313 22.4256 48.4611C22.4314 48.1929 22.6503 47.9797 22.9166 47.9797C22.9202 47.9797 22.9238 47.9798 22.9274 47.9799C23.1988 47.9857 23.4141 48.2107 23.4082 48.4823C23.2867 54.1312 23.1817 59.0099 18.1294 65.3337C18.0324 65.4551 17.8894 65.5184 17.7453 65.5184H17.7455Z" fill="url(#paint22_linear_2085_568)"/>
<path d="M11.2902 60.8085C8.00655 60.8085 4.71712 59.9942 1.77904 58.4256C1.53956 58.2976 1.44898 57.9995 1.57674 57.7599C1.70434 57.5203 2.00213 57.4298 2.24161 57.5574C5.94201 59.5332 10.227 60.2514 14.3078 59.5794C14.5753 59.5352 14.8283 59.7169 14.8724 59.985C14.9165 60.2533 14.735 60.5064 14.4671 60.5504C13.4172 60.7234 12.3538 60.8086 11.2904 60.8086L11.2902 60.8085Z" fill="url(#paint23_linear_2085_568)"/>
<path d="M11.1351 72.2631C9.71826 72.2631 8.32415 71.9592 6.96838 71.6637C5.37444 71.3162 3.86879 70.9876 2.33874 71.113C2.0688 71.1356 1.83112 70.9334 1.80901 70.6627C1.78706 70.3919 1.98837 70.1543 2.25897 70.1323C3.93481 69.9957 5.58329 70.3547 7.17755 70.7024C8.79229 71.0545 10.3173 71.3876 11.8658 71.2473C14.8169 70.9817 17.2997 69.0823 20.009 66.8139C20.217 66.6399 20.5271 66.6673 20.7012 66.8758C20.8753 67.0842 20.8476 67.3945 20.6395 67.569C18.3281 69.5042 15.4514 71.9125 11.9538 72.2275C11.6803 72.252 11.4072 72.2633 11.1351 72.2635V72.2631Z" fill="url(#paint24_linear_2085_568)"/>
<path d="M85.6284 36.4616C85.4859 36.4616 85.3471 36.4475 85.2143 36.4176C84.43 36.2423 83.7516 35.6508 83.3996 34.8357C83.0477 34.0203 83.0823 33.1206 83.4919 32.4285C83.9016 31.7364 84.6736 31.2744 85.557 31.1924C86.4405 31.1111 87.2841 31.4225 87.814 32.0273C88.6181 32.9452 88.7622 34.0072 88.2092 34.941C87.6806 35.834 86.575 36.4616 85.6284 36.4616ZM85.8367 32.1633C85.7743 32.1633 85.7113 32.1664 85.6477 32.1722C85.0769 32.2251 84.5871 32.5087 84.3373 32.9305C84.0875 33.3521 84.0742 33.9184 84.3016 34.4452C84.5291 34.9721 84.9502 35.3506 85.4282 35.4574C85.9725 35.5792 86.9365 35.1606 87.3637 34.4391C87.6998 33.8715 87.6025 33.2785 87.0749 32.6763C86.7879 32.3486 86.3345 32.1633 85.8364 32.1633H85.8367Z" fill="url(#paint25_linear_2085_568)"/>
<path d="M78.7148 15.368C78.676 15.368 78.6367 15.3634 78.5972 15.3535C78.3337 15.2889 78.1725 15.0224 78.2372 14.7584L79.0315 11.5217C79.0962 11.258 79.3618 11.0956 79.6259 11.1614C79.8894 11.2261 80.0506 11.4926 79.9859 11.7565L79.1917 14.9932C79.1366 15.2176 78.9358 15.368 78.7148 15.368Z" fill="url(#paint26_linear_2085_568)"/>
<path d="M82.0789 16.0729C82.0629 16.0729 82.0465 16.0721 82.0301 16.0704L79.6395 15.8346C79.3695 15.808 79.1721 15.5671 79.1987 15.2968C79.2252 15.0264 79.464 14.8276 79.7359 14.8554L82.1266 15.0914C82.3967 15.1179 82.5939 15.3588 82.5674 15.6291C82.5425 15.8831 82.3287 16.0729 82.0789 16.0729Z" fill="url(#paint27_linear_2085_568)"/>
<path d="M77.7493 15.4918C77.7211 15.4918 77.6926 15.4892 77.6641 15.4843L75.4241 15.0916C75.1568 15.0447 74.9779 14.7898 75.0248 14.522C75.0715 14.2544 75.327 14.0763 75.5935 14.1222L77.8335 14.5148C78.1008 14.5616 78.2797 14.8166 78.2328 15.0844C78.191 15.3234 77.9837 15.4918 77.7493 15.4918Z" fill="url(#paint28_linear_2085_568)"/>
<path d="M78.179 18.5493C78.1485 18.5493 78.1176 18.5464 78.0864 18.5405C77.8199 18.4894 77.645 18.2318 77.6958 17.9648L78.1022 15.8312C78.1529 15.5642 78.4101 15.3889 78.6769 15.44C78.9434 15.4909 79.1184 15.7487 79.0676 16.0157L78.6612 18.1493C78.6163 18.3851 78.4101 18.5493 78.179 18.5493Z" fill="url(#paint29_linear_2085_568)"/>
<path d="M99.5829 45.6799C99.5601 45.6799 99.5372 45.6782 99.5143 45.6751C99.261 45.6395 99.0774 45.4155 99.0918 45.1598C99.1147 44.7579 99.1385 44.3423 99.0176 44.0005C98.9318 43.7575 98.7203 43.5067 98.4825 43.4975C98.2594 43.4887 98.0702 43.3304 98.0219 43.1123C97.9737 42.894 98.0784 42.6706 98.2769 42.5683C98.9945 42.1987 99.5226 41.4416 99.6225 40.6395C99.6504 40.4156 99.8268 40.2393 100.051 40.2119C100.274 40.1834 100.488 40.313 100.569 40.5234C100.986 41.6091 101.469 42.34 102.046 42.7581C102.207 42.8751 102.282 43.0782 102.235 43.2722C102.188 43.4662 102.029 43.6127 101.832 43.643C100.993 43.7717 100.249 44.4669 100.062 45.2959C100.011 45.5231 99.8094 45.6799 99.5829 45.6799ZM99.4633 42.9303C99.6656 43.1218 99.8197 43.3593 99.9162 43.5984C100.175 43.3317 100.48 43.109 100.813 42.9455C100.587 42.6828 100.377 42.3768 100.181 42.0251C99.9924 42.363 99.7496 42.67 99.4635 42.9304L99.4633 42.9303Z" fill="url(#paint30_linear_2085_568)"/>
<path d="M7.5507 119.302C7.48452 119.302 7.41737 119.288 7.35316 119.26C7.11892 119.157 7.00295 118.891 7.08633 118.649C7.2172 118.269 7.35267 117.876 7.32892 117.513C7.31204 117.256 7.17658 116.957 6.95005 116.884C6.73776 116.815 6.59853 116.611 6.61114 116.388C6.62376 116.165 6.7851 115.978 7.00377 115.934C7.79476 115.773 8.50828 115.187 8.82146 114.443C8.90893 114.235 9.12629 114.113 9.34922 114.147C9.57183 114.182 9.74267 114.363 9.76364 114.588C9.87125 115.746 10.1382 116.581 10.5799 117.14C10.7035 117.296 10.7204 117.512 10.6228 117.686C10.5251 117.86 10.3317 117.957 10.1343 117.933C9.29124 117.828 8.38706 118.296 7.98297 119.044C7.89452 119.207 7.72597 119.301 7.55054 119.301L7.5507 119.302ZM8.04783 116.604C8.1905 116.844 8.2747 117.114 8.30271 117.37C8.62408 117.184 8.9774 117.053 9.34284 116.986C9.1964 116.671 9.07682 116.32 8.98346 115.928C8.71073 116.202 8.39361 116.432 8.04783 116.604Z" fill="url(#paint31_linear_2085_568)"/>
<path d="M16.314 113.302C16.0887 113.302 15.8874 113.146 15.8355 112.92C15.6827 112.253 15.6363 111.562 15.6917 110.873C15.6247 109.83 15.5148 108.84 15.1215 107.932C14.6887 106.933 13.7282 106.022 12.6707 105.815C12.2734 105.904 11.8545 105.929 11.4201 105.875C11.1892 105.846 11.0101 105.659 10.9911 105.427C10.9723 105.194 11.1186 104.98 11.342 104.915C11.7713 104.788 12.2005 104.758 12.6168 104.808C13.7295 104.484 14.6696 103.494 15.13 102.454C15.7289 101.102 15.7903 99.5246 15.7872 98.066C15.7847 97.8694 15.7836 97.6668 15.7833 97.4579C15.7829 97.1868 16.0014 96.9666 16.2722 96.9651H16.2748C16.5443 96.9651 16.7638 97.1827 16.7661 97.453C16.7679 97.6568 16.7695 97.8638 16.77 98.0734C16.7965 100.272 16.9657 101.628 17.634 102.665C18.3633 103.796 19.702 104.522 21.0489 104.516H21.0517C21.3027 104.516 21.5135 104.705 21.5402 104.955C21.567 105.206 21.3998 105.437 21.1531 105.489C19.7574 105.784 18.5202 106.681 17.6694 108.014C17.1056 108.898 16.7684 109.888 16.6771 110.881C16.6883 111.061 16.6984 111.24 16.7082 111.418C16.7331 111.862 16.7589 112.321 16.8034 112.76C16.8298 113.019 16.6506 113.253 16.3946 113.295C16.3675 113.3 16.3407 113.302 16.3141 113.302L16.314 113.302ZM13.9805 105.263C14.8812 105.766 15.6214 106.613 16.0232 107.541C16.1489 107.831 16.2493 108.126 16.3302 108.426C16.4768 108.102 16.6473 107.788 16.8412 107.484C17.4791 106.485 18.3086 105.694 19.2583 105.163C18.2643 104.781 17.3834 104.091 16.8083 103.199C16.5978 102.872 16.4295 102.527 16.2948 102.152C16.2186 102.388 16.1305 102.622 16.0286 102.852C15.625 103.764 14.9053 104.677 13.9806 105.263L13.9805 105.263Z" fill="url(#paint32_linear_2085_568)"/>
<path d="M18.3467 123.251C18.2039 123.251 18.0603 123.233 17.9181 123.198C17.4555 123.085 17.0648 122.797 16.8182 122.389C16.5715 121.981 16.4981 121.502 16.6118 121.038C16.8463 120.082 17.8141 119.495 18.769 119.731C19.2316 119.844 19.6223 120.132 19.8689 120.54C20.1156 120.948 20.189 121.427 20.0753 121.89C19.9616 122.354 19.6747 122.745 19.2671 122.992C18.9851 123.163 18.6684 123.251 18.3467 123.251ZM17.5662 121.273C17.5153 121.481 17.5481 121.697 17.6588 121.88C17.7695 122.063 17.9449 122.192 18.1526 122.243C18.3603 122.294 18.5752 122.261 18.7582 122.15C18.941 122.039 19.0699 121.864 19.1209 121.656C19.1718 121.448 19.139 121.232 19.0283 121.049C18.9176 120.866 18.7422 120.737 18.5345 120.686C18.1061 120.581 17.6717 120.844 17.5662 121.273Z" fill="url(#paint33_linear_2085_568)"/>
<path d="M96.9862 106.931C96.3362 106.931 95.6617 106.856 94.9765 106.702C93.2666 106.32 91.6828 105.531 90.0761 104.686C89.8358 104.56 89.7433 104.262 89.8694 104.022C89.9955 103.781 90.2925 103.689 90.5329 103.815C92.1379 104.658 93.596 105.386 95.1906 105.742C96.955 106.136 98.6202 105.96 99.8794 105.245C101.593 104.273 102.57 102.362 103.515 100.514C103.686 100.181 103.855 99.8497 104.028 99.525C106.086 95.6578 109.027 92.2873 112.571 89.7228L101.097 86.4745C100.836 86.4007 100.684 86.1288 100.758 85.8672C100.832 85.6058 101.103 85.4538 101.364 85.5277L113.84 89.0591C114.024 89.1113 114.161 89.2663 114.191 89.4558C114.221 89.6453 114.138 89.8352 113.979 89.9418C110.183 92.4802 107.042 95.954 104.895 99.9878C104.725 100.308 104.558 100.634 104.39 100.962C103.379 102.939 102.334 104.984 100.364 106.101C99.396 106.651 98.2364 106.931 96.9862 106.931V106.931Z" fill="url(#paint34_linear_2085_568)"/>
<path d="M95.707 95.6935C95.5463 95.6935 95.3889 95.615 95.2947 95.47C95.1467 95.2422 95.211 94.9375 95.4384 94.7894C100.703 91.3579 106.394 89.4901 112.838 89.0794C113.109 89.0642 113.342 89.268 113.36 89.5393C113.377 89.8104 113.171 90.0442 112.9 90.0616C106.543 90.4669 101.164 92.2312 95.9747 95.614C95.8919 95.6679 95.7989 95.6937 95.707 95.6937V95.6935Z" fill="url(#paint35_linear_2085_568)"/>
<defs>
<linearGradient id="paint0_linear_2085_568" x1="71.7074" y1="75.1505" x2="76.5515" y2="74.8928" gradientUnits="userSpaceOnUse">
<stop offset="0.156893" stop-color="#C39D61"/>
<stop offset="0.4375" stop-color="#FFCB7A"/>
<stop offset="0.653846" stop-color="#DFAB5A"/>
<stop offset="1" stop-color="#9C7E4F"/>
</linearGradient>
<linearGradient id="paint1_linear_2085_568" x1="30.0977" y1="122.028" x2="77.7929" y2="120.354" gradientUnits="userSpaceOnUse">
<stop offset="0.156893" stop-color="#C39D61"/>
<stop offset="0.4375" stop-color="#FFCB7A"/>
<stop offset="0.653846" stop-color="#DFAB5A"/>
<stop offset="1" stop-color="#9C7E4F"/>
</linearGradient>
<linearGradient id="paint2_linear_2085_568" x1="48.7185" y1="124.974" x2="106.251" y2="122.135" gradientUnits="userSpaceOnUse">
<stop offset="0.156893" stop-color="#C39D61"/>
<stop offset="0.4375" stop-color="#FFCB7A"/>
<stop offset="0.653846" stop-color="#DFAB5A"/>
<stop offset="1" stop-color="#9C7E4F"/>
</linearGradient>
<linearGradient id="paint3_linear_2085_568" x1="72.4313" y1="77.5663" x2="93.6493" y2="76.642" gradientUnits="userSpaceOnUse">
<stop offset="0.156893" stop-color="#C39D61"/>
<stop offset="0.4375" stop-color="#FFCB7A"/>
<stop offset="0.653846" stop-color="#DFAB5A"/>
<stop offset="1" stop-color="#9C7E4F"/>
</linearGradient>
<linearGradient id="paint4_linear_2085_568" x1="83.9741" y1="79.9295" x2="101.946" y2="71.8379" gradientUnits="userSpaceOnUse">
<stop offset="0.156893" stop-color="#C39D61"/>
<stop offset="0.4375" stop-color="#FFCB7A"/>
<stop offset="0.653846" stop-color="#DFAB5A"/>
<stop offset="1" stop-color="#9C7E4F"/>
</linearGradient>
<linearGradient id="paint5_linear_2085_568" x1="72.7722" y1="69.5104" x2="76.3938" y2="69.1983" gradientUnits="userSpaceOnUse">
<stop offset="0.156893" stop-color="#C39D61"/>
<stop offset="0.4375" stop-color="#FFCB7A"/>
<stop offset="0.653846" stop-color="#DFAB5A"/>
<stop offset="1" stop-color="#9C7E4F"/>
</linearGradient>
<linearGradient id="paint6_linear_2085_568" x1="64.8207" y1="119.553" x2="80.6525" y2="115.234" gradientUnits="userSpaceOnUse">
<stop offset="0.156893" stop-color="#C39D61"/>
<stop offset="0.4375" stop-color="#FFCB7A"/>
<stop offset="0.653846" stop-color="#DFAB5A"/>
<stop offset="1" stop-color="#9C7E4F"/>
</linearGradient>
<linearGradient id="paint7_linear_2085_568" x1="33.8084" y1="140.162" x2="68.1708" y2="136.852" gradientUnits="userSpaceOnUse">
<stop offset="0.156893" stop-color="#C39D61"/>
<stop offset="0.4375" stop-color="#FFCB7A"/>
<stop offset="0.653846" stop-color="#DFAB5A"/>
<stop offset="1" stop-color="#9C7E4F"/>
</linearGradient>
<linearGradient id="paint8_linear_2085_568" x1="65.2561" y1="108.66" x2="88.0831" y2="107.52" gradientUnits="userSpaceOnUse">
<stop offset="0.156893" stop-color="#C39D61"/>
<stop offset="0.4375" stop-color="#FFCB7A"/>
<stop offset="0.653846" stop-color="#DFAB5A"/>
<stop offset="1" stop-color="#9C7E4F"/>
</linearGradient>
<linearGradient id="paint9_linear_2085_568" x1="12.893" y1="140.162" x2="77.9462" y2="138.057" gradientUnits="userSpaceOnUse">
<stop offset="0.156893" stop-color="#C39D61"/>
<stop offset="0.4375" stop-color="#FFCB7A"/>
<stop offset="0.653846" stop-color="#DFAB5A"/>
<stop offset="1" stop-color="#9C7E4F"/>
</linearGradient>
<linearGradient id="paint10_linear_2085_568" x1="66.2339" y1="116.194" x2="69.4416" y2="116.11" gradientUnits="userSpaceOnUse">
<stop offset="0.156893" stop-color="#C39D61"/>
<stop offset="0.4375" stop-color="#FFCB7A"/>
<stop offset="0.653846" stop-color="#DFAB5A"/>
<stop offset="1" stop-color="#9C7E4F"/>
</linearGradient>
<linearGradient id="paint11_linear_2085_568" x1="19.6413" y1="49.7959" x2="50.8211" y2="46.2806" gradientUnits="userSpaceOnUse">
<stop offset="0.156893" stop-color="#C39D61"/>
<stop offset="0.4375" stop-color="#FFCB7A"/>
<stop offset="0.653846" stop-color="#DFAB5A"/>
<stop offset="1" stop-color="#9C7E4F"/>
</linearGradient>
<linearGradient id="paint12_linear_2085_568" x1="40.1201" y1="31.2751" x2="53.402" y2="30.87" gradientUnits="userSpaceOnUse">
<stop offset="0.156893" stop-color="#C39D61"/>
<stop offset="0.4375" stop-color="#FFCB7A"/>
<stop offset="0.653846" stop-color="#DFAB5A"/>
<stop offset="1" stop-color="#9C7E4F"/>
</linearGradient>
<linearGradient id="paint13_linear_2085_568" x1="51.1394" y1="28.2734" x2="61.8035" y2="27.9888" gradientUnits="userSpaceOnUse">
<stop offset="0.156893" stop-color="#C39D61"/>
<stop offset="0.4375" stop-color="#FFCB7A"/>
<stop offset="0.653846" stop-color="#DFAB5A"/>
<stop offset="1" stop-color="#9C7E4F"/>
</linearGradient>
<linearGradient id="paint14_linear_2085_568" x1="66.372" y1="116.069" x2="68.5501" y2="115.788" gradientUnits="userSpaceOnUse">
<stop offset="0.156893" stop-color="#C39D61"/>
<stop offset="0.4375" stop-color="#FFCB7A"/>
<stop offset="0.653846" stop-color="#DFAB5A"/>
<stop offset="1" stop-color="#9C7E4F"/>
</linearGradient>
<linearGradient id="paint15_linear_2085_568" x1="19.8047" y1="117.753" x2="37.7204" y2="116.088" gradientUnits="userSpaceOnUse">
<stop offset="0.156893" stop-color="#C39D61"/>
<stop offset="0.4375" stop-color="#FFCB7A"/>
<stop offset="0.653846" stop-color="#DFAB5A"/>
<stop offset="1" stop-color="#9C7E4F"/>
</linearGradient>
<linearGradient id="paint16_linear_2085_568" x1="-4.04637" y1="78.7249" x2="25.0355" y2="77.1424" gradientUnits="userSpaceOnUse">
<stop offset="0.156893" stop-color="#C39D61"/>
<stop offset="0.4375" stop-color="#FFCB7A"/>
<stop offset="0.653846" stop-color="#DFAB5A"/>
<stop offset="1" stop-color="#9C7E4F"/>
</linearGradient>
<linearGradient id="paint17_linear_2085_568" x1="12.2882" y1="38.4698" x2="37.8099" y2="37.1357" gradientUnits="userSpaceOnUse">
<stop offset="0.156893" stop-color="#C39D61"/>
<stop offset="0.4375" stop-color="#FFCB7A"/>
<stop offset="0.653846" stop-color="#DFAB5A"/>
<stop offset="1" stop-color="#9C7E4F"/>
</linearGradient>
<linearGradient id="paint18_linear_2085_568" x1="88.3624" y1="27.6894" x2="98.4371" y2="26.9725" gradientUnits="userSpaceOnUse">
<stop offset="0.156893" stop-color="#C39D61"/>
<stop offset="0.4375" stop-color="#FFCB7A"/>
<stop offset="0.653846" stop-color="#DFAB5A"/>
<stop offset="1" stop-color="#9C7E4F"/>
</linearGradient>
<linearGradient id="paint19_linear_2085_568" x1="-0.503882" y1="68.7131" x2="23.9557" y2="67.0741" gradientUnits="userSpaceOnUse">
<stop offset="0.156893" stop-color="#C39D61"/>
<stop offset="0.4375" stop-color="#FFCB7A"/>
<stop offset="0.653846" stop-color="#DFAB5A"/>
<stop offset="1" stop-color="#9C7E4F"/>
</linearGradient>
<linearGradient id="paint20_linear_2085_568" x1="18.8025" y1="26.988" x2="30.6721" y2="26.4976" gradientUnits="userSpaceOnUse">
<stop offset="0.156893" stop-color="#C39D61"/>
<stop offset="0.4375" stop-color="#FFCB7A"/>
<stop offset="0.653846" stop-color="#DFAB5A"/>
<stop offset="1" stop-color="#9C7E4F"/>
</linearGradient>
<linearGradient id="paint21_linear_2085_568" x1="12.789" y1="57.5508" x2="16.7617" y2="57.4666" gradientUnits="userSpaceOnUse">
<stop offset="0.156893" stop-color="#C39D61"/>
<stop offset="0.4375" stop-color="#FFCB7A"/>
<stop offset="0.653846" stop-color="#DFAB5A"/>
<stop offset="1" stop-color="#9C7E4F"/>
</linearGradient>
<linearGradient id="paint22_linear_2085_568" x1="16.2522" y1="65.5184" x2="23.4703" y2="65.3114" gradientUnits="userSpaceOnUse">
<stop offset="0.156893" stop-color="#C39D61"/>
<stop offset="0.4375" stop-color="#FFCB7A"/>
<stop offset="0.653846" stop-color="#DFAB5A"/>
<stop offset="1" stop-color="#9C7E4F"/>
</linearGradient>
<linearGradient id="paint23_linear_2085_568" x1="-0.656893" y1="60.8086" x2="13.4857" y2="56.1407" gradientUnits="userSpaceOnUse">
<stop offset="0.156893" stop-color="#C39D61"/>
<stop offset="0.4375" stop-color="#FFCB7A"/>
<stop offset="0.653846" stop-color="#DFAB5A"/>
<stop offset="1" stop-color="#9C7E4F"/>
</linearGradient>
<linearGradient id="paint24_linear_2085_568" x1="-1.28811" y1="72.2635" x2="19.4109" y2="66.4824" gradientUnits="userSpaceOnUse">
<stop offset="0.156893" stop-color="#C39D61"/>
<stop offset="0.4375" stop-color="#FFCB7A"/>
<stop offset="0.653846" stop-color="#DFAB5A"/>
<stop offset="1" stop-color="#9C7E4F"/>
</linearGradient>
<linearGradient id="paint25_linear_2085_568" x1="82.2817" y1="36.4616" x2="88.5564" y2="35.9388" gradientUnits="userSpaceOnUse">
<stop offset="0.156893" stop-color="#C39D61"/>
<stop offset="0.4375" stop-color="#FFCB7A"/>
<stop offset="0.653846" stop-color="#DFAB5A"/>
<stop offset="1" stop-color="#9C7E4F"/>
</linearGradient>
<linearGradient id="paint26_linear_2085_568" x1="77.9335" y1="15.368" x2="80.0174" y2="15.2962" gradientUnits="userSpaceOnUse">
<stop offset="0.156893" stop-color="#C39D61"/>
<stop offset="0.4375" stop-color="#FFCB7A"/>
<stop offset="0.653846" stop-color="#DFAB5A"/>
<stop offset="1" stop-color="#9C7E4F"/>
</linearGradient>
<linearGradient id="paint27_linear_2085_568" x1="78.6469" y1="16.0729" x2="82.4145" y2="15.2212" gradientUnits="userSpaceOnUse">
<stop offset="0.156893" stop-color="#C39D61"/>
<stop offset="0.4375" stop-color="#FFCB7A"/>
<stop offset="0.653846" stop-color="#DFAB5A"/>
<stop offset="1" stop-color="#9C7E4F"/>
</linearGradient>
<linearGradient id="paint28_linear_2085_568" x1="74.4925" y1="15.4918" x2="78.1422" y2="14.7933" gradientUnits="userSpaceOnUse">
<stop offset="0.156893" stop-color="#C39D61"/>
<stop offset="0.4375" stop-color="#FFCB7A"/>
<stop offset="0.653846" stop-color="#DFAB5A"/>
<stop offset="1" stop-color="#9C7E4F"/>
</linearGradient>
<linearGradient id="paint29_linear_2085_568" x1="77.4608" y1="18.5493" x2="79.0895" y2="18.49" gradientUnits="userSpaceOnUse">
<stop offset="0.156893" stop-color="#C39D61"/>
<stop offset="0.4375" stop-color="#FFCB7A"/>
<stop offset="0.653846" stop-color="#DFAB5A"/>
<stop offset="1" stop-color="#9C7E4F"/>
</linearGradient>
<linearGradient id="paint30_linear_2085_568" x1="97.32" y1="45.6799" x2="102.276" y2="45.366" gradientUnits="userSpaceOnUse">
<stop offset="0.156893" stop-color="#C39D61"/>
<stop offset="0.4375" stop-color="#FFCB7A"/>
<stop offset="0.653846" stop-color="#DFAB5A"/>
<stop offset="1" stop-color="#9C7E4F"/>
</linearGradient>
<linearGradient id="paint31_linear_2085_568" x1="5.94667" y1="119.302" x2="10.7109" y2="118.994" gradientUnits="userSpaceOnUse">
<stop offset="0.156893" stop-color="#C39D61"/>
<stop offset="0.4375" stop-color="#FFCB7A"/>
<stop offset="0.653846" stop-color="#DFAB5A"/>
<stop offset="1" stop-color="#9C7E4F"/>
</linearGradient>
<linearGradient id="paint32_linear_2085_568" x1="9.27088" y1="113.302" x2="21.625" y2="112.65" gradientUnits="userSpaceOnUse">
<stop offset="0.156893" stop-color="#C39D61"/>
<stop offset="0.4375" stop-color="#FFCB7A"/>
<stop offset="0.653846" stop-color="#DFAB5A"/>
<stop offset="1" stop-color="#9C7E4F"/>
</linearGradient>
<linearGradient id="paint33_linear_2085_568" x1="15.9785" y1="123.251" x2="20.1392" y2="122.911" gradientUnits="userSpaceOnUse">
<stop offset="0.156893" stop-color="#C39D61"/>
<stop offset="0.4375" stop-color="#FFCB7A"/>
<stop offset="0.653846" stop-color="#DFAB5A"/>
<stop offset="1" stop-color="#9C7E4F"/>
</linearGradient>
<linearGradient id="paint34_linear_2085_568" x1="85.842" y1="106.931" x2="114.221" y2="104.291" gradientUnits="userSpaceOnUse">
<stop offset="0.156893" stop-color="#C39D61"/>
<stop offset="0.4375" stop-color="#FFCB7A"/>
<stop offset="0.653846" stop-color="#DFAB5A"/>
<stop offset="1" stop-color="#9C7E4F"/>
</linearGradient>
<linearGradient id="paint35_linear_2085_568" x1="92.2601" y1="95.6937" x2="112.541" y2="91.1456" gradientUnits="userSpaceOnUse">
<stop offset="0.156893" stop-color="#C39D61"/>
<stop offset="0.4375" stop-color="#FFCB7A"/>
<stop offset="0.653846" stop-color="#DFAB5A"/>
<stop offset="1" stop-color="#9C7E4F"/>
</linearGradient>
</defs>
</svg>
