<svg width="332" height="390" viewBox="0 0 332 390" fill="none" xmlns="http://www.w3.org/2000/svg">
<mask id="path-1-inside-1_2085_193" fill="white">
<path d="M311 0C311 11.598 320.402 21 332 21V369C320.402 369 311 378.402 311 390H23C23 378.402 13.598 369 2 369C1.32541 369 0.658315 369.033 0 369.095V20.9043C0.658345 20.9665 1.32538 21 2 21C13.598 21 23 11.598 23 0H311Z"/>
</mask>
<path d="M311 0H312V-1H311V0ZM332 21H333V20H332V21ZM332 369V370H333V369H332ZM311 390V391H312V390H311ZM23 390H22V391H23V390ZM0 369.095H-1V370.194L0.0940621 370.09L0 369.095ZM0 20.9043L0.0940664 19.9087L-1 19.8054V20.9043H0ZM23 0V-1H22V0H23ZM311 0H310C310 12.1503 319.85 22 332 22V21V20C320.954 20 312 11.0457 312 0H311ZM332 21H331V369H332H333V21H332ZM332 369V368C319.85 368 310 377.85 310 390H311H312C312 378.954 320.954 370 332 370V369ZM311 390V389H23V390V391H311V390ZM23 390H24C24 377.85 14.1503 368 2 368V369V370C13.0457 370 22 378.954 22 390H23ZM2 369V368C1.29324 368 0.59475 368.034 -0.0940621 368.099L0 369.095L0.0940621 370.09C0.72188 370.031 1.35758 370 2 370V369ZM0 369.095H1V20.9043H0H-1V369.095H0ZM0 20.9043L-0.0940664 21.8999C0.59379 21.9649 1.29225 22 2 22V21V20C1.3585 20 0.722899 19.9681 0.0940664 19.9087L0 20.9043ZM2 21V22C14.1503 22 24 12.1503 24 0H23H22C22 11.0457 13.0457 20 2 20V21ZM23 0V1H311V0V-1H23V0Z" fill="#5C3169" mask="url(#path-1-inside-1_2085_193)"/>
<rect x="6.5" y="7.5" width="319" height="375" stroke="#5C3169"/>
</svg>
