<svg preserveAspectRatio="none" width="100%" height="100%" overflow="visible" style="display: block;" viewBox="0 0 56.25 75" fill="none" xmlns="http://www.w3.org/2000/svg">
<g id="Group 14">
<path id="Union" d="M42.25 0C42.25 7.7319 48.5181 13.9999 56.25 14V61C48.5182 61.0001 42.25 67.2681 42.25 75H14C14 67.2682 7.73181 61.0002 0 61V14C7.73183 13.9998 14 7.73187 14 0H42.25Z" fill="url(#paint0_linear_2008_15)"/>
<g id="Group 13">
<g id="Union_2">
<mask id="path-2-inside-1_2008_15" fill="white">
<path d="M28.5 24.323C32.4132 24.323 35.5859 27.4957 35.5859 31.4089C35.5859 34.31 33.841 36.8012 31.3447 37.8972L36 51.0916H21L25.6543 37.8972C23.1584 36.801 21.4141 34.3097 21.4141 31.4089C21.4141 27.4957 24.5867 24.323 28.5 24.323Z"/>
</mask>
<path d="M28.5 24.323L28.5 22.823H28.5V24.323ZM35.5859 31.4089H37.0859V31.4089L35.5859 31.4089ZM31.3447 37.8972L30.7417 36.5238L29.467 37.0835L29.9302 38.3963L31.3447 37.8972ZM36 51.0916V52.5916H38.1199L37.4145 50.5925L36 51.0916ZM21 51.0916L19.5854 50.5926L18.8803 52.5916H21V51.0916ZM25.6543 37.8972L27.0689 38.3962L27.5319 37.0836L26.2575 36.5238L25.6543 37.8972ZM21.4141 31.4089L19.9141 31.4089V31.4089H21.4141ZM28.5 24.323L28.5 25.823C31.5848 25.823 34.0859 28.3241 34.0859 31.4089L35.5859 31.4089L37.0859 31.4089C37.0859 26.6673 33.2417 22.823 28.5 22.823L28.5 24.323ZM35.5859 31.4089H34.0859C34.0859 33.6923 32.7138 35.6579 30.7417 36.5238L31.3447 37.8972L31.9478 39.2707C34.9682 37.9445 37.0859 34.9276 37.0859 31.4089H35.5859ZM31.3447 37.8972L29.9302 38.3963L34.5855 51.5906L36 51.0916L37.4145 50.5925L32.7593 37.3981L31.3447 37.8972ZM36 51.0916V49.5916H21V51.0916V52.5916H36V51.0916ZM21 51.0916L22.4146 51.5905L27.0689 38.3962L25.6543 37.8972L24.2397 37.3982L19.5854 50.5926L21 51.0916ZM25.6543 37.8972L26.2575 36.5238C24.2859 35.6579 22.9141 33.6922 22.9141 31.4089H21.4141H19.9141C19.9141 34.9271 22.031 37.9441 25.0511 39.2706L25.6543 37.8972ZM21.4141 31.4089L22.9141 31.4089C22.9141 28.3241 25.4152 25.823 28.5 25.823V24.323V22.823C23.7583 22.823 19.9141 26.6673 19.9141 31.4089L21.4141 31.4089Z" fill="var(--stroke-0, #43362A)" mask="url(#path-2-inside-1_2008_15)"/>
</g>
<g id="Union_3">
<mask id="path-4-inside-2_2008_15" fill="white">
<path d="M31.7476 47.7734H25.2524L28.4995 38.2109L31.7476 47.7734ZM28.5005 28.5C30.1571 28.5003 31.5005 29.8433 31.5005 31.5C31.5005 33.1567 30.1571 34.4997 28.5005 34.5C26.8436 34.5 25.5005 33.1569 25.5005 31.5C25.5005 29.8431 26.8436 28.5 28.5005 28.5Z"/>
</mask>
<path d="M31.7476 47.7734H25.2524L28.4995 38.2109L31.7476 47.7734ZM28.5005 28.5C30.1571 28.5003 31.5005 29.8433 31.5005 31.5C31.5005 33.1567 30.1571 34.4997 28.5005 34.5C26.8436 34.5 25.5005 33.1569 25.5005 31.5C25.5005 29.8431 26.8436 28.5 28.5005 28.5Z" fill="var(--fill-0, #43362A)"/>
<path d="M31.7476 47.7734V49.2734H33.8412L33.1679 47.291L31.7476 47.7734ZM25.2524 47.7734L23.8321 47.2911L23.159 49.2734H25.2524V47.7734ZM28.4995 38.2109L29.9198 37.7285L28.4993 33.5464L27.0792 37.7286L28.4995 38.2109ZM28.5005 28.5L28.5007 27H28.5005V28.5ZM28.5005 34.5V36H28.5007L28.5005 34.5ZM31.7476 47.7734V46.2734H25.2524V47.7734V49.2734H31.7476V47.7734ZM25.2524 47.7734L26.6728 48.2557L29.9199 38.6932L28.4995 38.2109L27.0792 37.7286L23.8321 47.2911L25.2524 47.7734ZM28.4995 38.2109L27.0792 38.6934L30.3273 48.2559L31.7476 47.7734L33.1679 47.291L29.9198 37.7285L28.4995 38.2109ZM28.5005 28.5L28.5002 30C29.3289 30.0001 30.0005 30.672 30.0005 31.5H31.5005H33.0005C33.0005 29.0146 30.9854 27.0004 28.5007 27L28.5005 28.5ZM31.5005 31.5H30.0005C30.0005 32.328 29.3289 32.9999 28.5002 33L28.5005 34.5L28.5007 36C30.9854 35.9996 33.0005 33.9854 33.0005 31.5H31.5005ZM28.5005 34.5V33C27.6721 33 27.0005 32.3284 27.0005 31.5H25.5005H24.0005C24.0005 33.9853 26.0152 36 28.5005 36V34.5ZM25.5005 31.5H27.0005C27.0005 30.6716 27.6721 30 28.5005 30V28.5V27C26.0152 27 24.0005 29.0147 24.0005 31.5H25.5005Z" fill="var(--stroke-0, #43362A)" mask="url(#path-4-inside-2_2008_15)"/>
</g>
</g>
</g>
<defs>
<linearGradient id="paint0_linear_2008_15" x1="51.75" y1="-29.25" x2="-0.57209" y2="18.5557" gradientUnits="userSpaceOnUse">
<stop offset="0.156893" stop-color="#C39D61"/>
<stop offset="0.4375" stop-color="#FFCB7A"/>
<stop offset="0.653846" stop-color="#DFAB5A"/>
<stop offset="1" stop-color="#9C7E4F"/>
</linearGradient>
</defs>
</svg>
