<svg preserveAspectRatio="none" width="100%" height="100%" overflow="visible" style="display: block;" viewBox="0 0 236.501 58.5" fill="none" xmlns="http://www.w3.org/2000/svg">
<g id="Subtract">
<mask id="path-1-inside-1_2008_39" fill="white">
<path d="M223.31 0C223.31 5.84254 228.852 10.6129 235.822 10.9053L236.501 10.9199V47.5801C229.216 47.5801 223.31 52.4691 223.31 58.5H14.1328C14.1328 52.4692 8.22751 47.5803 0.942383 47.5801C0.625625 47.5801 0.31117 47.5922 0 47.6104V10.8887C0.311187 10.9069 0.625608 10.9199 0.942383 10.9199C8.2275 10.9197 14.1328 6.0308 14.1328 0H223.31Z"/>
</mask>
<path d="M223.31 0L224.31 -4.74901e-06V-1H223.31V0ZM235.822 10.9053L235.78 11.9044L235.791 11.9048L235.801 11.905L235.822 10.9053ZM236.501 10.9199H237.501V9.94127L236.523 9.92015L236.501 10.9199ZM236.501 47.5801V48.5801H237.501V47.5801H236.501ZM223.31 58.5V59.5H224.31V58.5H223.31ZM14.1328 58.5H13.1328V59.5H14.1328V58.5ZM0.942383 47.5801L0.942412 46.5801H0.942383V47.5801ZM0 47.6104H-1V48.6705L0.058314 48.6087L0 47.6104ZM0 10.8887L0.0583172 9.89037L-1 9.82855V10.8887H0ZM0.942383 10.9199V11.9199H0.942412L0.942383 10.9199ZM14.1328 0V-1H13.1328L13.1328 -4.74902e-06L14.1328 0ZM223.31 0L222.31 4.74901e-06C222.31 6.53908 228.451 11.597 235.78 11.9044L235.822 10.9053L235.864 9.90615C229.253 9.62886 224.31 5.14601 224.31 -4.74901e-06L223.31 0ZM235.822 10.9053L235.801 11.905L236.479 11.9197L236.501 10.9199L236.523 9.92015L235.844 9.90551L235.822 10.9053ZM236.501 10.9199H235.501V47.5801H236.501H237.501V10.9199H236.501ZM236.501 47.5801V46.5801C228.849 46.5801 222.31 51.7482 222.31 58.5H223.31H224.31C224.31 53.1899 229.583 48.5801 236.501 48.5801V47.5801ZM223.31 58.5V57.5H14.1328V58.5V59.5H223.31V58.5ZM14.1328 58.5H15.1328C15.1328 51.7484 8.5947 46.5803 0.942412 46.5801L0.942383 47.5801L0.942353 48.5801C7.86033 48.5803 13.1328 53.19 13.1328 58.5H14.1328ZM0.942383 47.5801V46.5801C0.600606 46.5801 0.26578 46.5931 -0.058314 46.6121L0 47.6104L0.058314 48.6087C0.356561 48.5912 0.650644 48.5801 0.942383 48.5801V47.5801ZM0 47.6104H1V10.8887H0H-1V47.6104H0ZM0 10.8887L-0.0583172 11.887C0.263356 11.9058 0.598896 11.9199 0.942383 11.9199V10.9199V9.91992C0.65232 9.91992 0.359018 9.90794 0.0583172 9.89037L0 10.8887ZM0.942383 10.9199L0.942412 11.9199C8.59469 11.9197 15.1328 6.75157 15.1328 4.74902e-06L14.1328 0L13.1328 -4.74902e-06C13.1328 5.31003 7.8603 9.91972 0.942353 9.91992L0.942383 10.9199ZM14.1328 0V1H223.31V0V-1H14.1328V0Z" fill="url(#paint0_linear_2008_39)" mask="url(#path-1-inside-1_2008_39)"/>
</g>
<defs>
<linearGradient id="paint0_linear_2008_39" x1="19.6743" y1="1.49252e-06" x2="194.036" y2="74.1836" gradientUnits="userSpaceOnUse">
<stop offset="0.156893" stop-color="#AC8B56"/>
<stop offset="0.4375" stop-color="#E7B86D"/>
<stop offset="0.653846" stop-color="#C79951"/>
<stop offset="1" stop-color="#8D7145"/>
</linearGradient>
</defs>
</svg>
