<svg width="87" height="63" viewBox="0 0 87 63" fill="none" xmlns="http://www.w3.org/2000/svg">
<path d="M60.7898 27.5063C53.9724 27.618 50.0674 28.3478 48.0681 28.8938C50.3728 28.1438 54.5719 26.9534 58.3967 26.8095C64.0312 26.5975 65.8185 24.6588 63.0921 23.5682C62.9406 23.5076 62.8002 23.443 62.6699 23.3748C61.0231 22.5122 62.3062 20.0173 63.9893 20.8065C67.9978 22.6869 69.9206 27.3567 60.7898 27.5063Z" fill="#4C4949"/>
<path d="M55.2937 20.842C52.8703 19.9938 53.8396 17.6309 55.839 17.5703C55.839 17.5703 54.5139 16.8184 52.9309 17.6309C51.2193 18.5094 50.2348 21.7507 53.1127 22.0234C55.9905 22.296 55.4452 26.6885 51.5374 25.8706C47.6296 25.0527 45.6605 29.627 45.6605 29.627C45.6605 29.627 49.3563 15.995 54.4455 15.995C59.5348 15.9951 57.7171 21.6902 55.2937 20.842ZM53.2035 24.871C53.7222 24.871 54.1426 24.4506 54.1426 23.9319C54.1426 23.4134 53.7222 22.9928 53.2035 22.9928C52.6848 22.9928 52.2644 23.4133 52.2644 23.9319C52.2644 24.4506 52.6848 24.871 53.2035 24.871ZM50.6593 21.0238C50.4419 21.0238 50.2655 21.2001 50.2655 21.4176C50.2655 21.6351 50.4419 21.8114 50.6593 21.8114C50.8768 21.8114 51.0532 21.6351 51.0532 21.4176C51.0532 21.2001 50.8768 21.0238 50.6593 21.0238ZM50.9166 22.7353C50.9166 23.0195 51.1471 23.25 51.4313 23.25C51.7155 23.25 51.9461 23.0195 51.9461 22.7353C51.9461 22.451 51.7155 22.2205 51.4313 22.2205C51.1471 22.2206 50.9166 22.4511 50.9166 22.7353Z" fill="#4C4949"/>
<path d="M85.0941 44.1083C83.7695 45.5286 81.5712 45.6857 80.0459 44.4834C78.21 43.0364 78.1339 40.2798 79.8872 38.7337C80.8152 37.9153 80.5117 36.4083 79.3443 35.9985C79.3346 35.9952 79.3248 35.9917 79.3149 35.9884C77.1875 35.2469 74.8203 35.8431 73.2525 37.4609C72.5968 38.1377 72.0447 38.8707 71.6232 39.5986C71.6202 39.6036 71.6173 39.6088 71.6144 39.6138C70.9637 40.7429 70.7942 42.0927 71.109 43.3573C71.6582 45.5626 72.9429 47.6379 72.3992 49.9035C71.4879 53.701 67.6036 53.528 67.6554 50.8821C67.6084 50.9472 67.5629 51.013 67.5138 51.0771C65.2001 54.1012 61.062 55.4152 56.714 54.5073C53.3279 53.7997 50.2683 51.9265 48.0988 49.2325C45.929 46.5383 44.7512 43.1496 44.782 39.6907C44.8045 37.1574 45.4787 34.848 46.7316 33.0124C48.4725 30.4614 51.3759 28.8698 54.6973 28.6457C54.9794 28.6265 55.2606 28.6173 55.5411 28.6173C58.9476 28.6173 62.2043 30.0063 64.3822 32.4224C65.1682 33.2944 65.7712 34.302 66.1728 35.3623L66.1788 35.3702L66.1798 35.3801C66.7322 36.8481 66.8958 38.4165 66.6009 39.8706C66.1704 41.993 64.7663 43.7748 62.7483 44.7596C60.5322 45.8412 57.9122 45.84 55.7397 44.7566C54.2395 44.0083 53.1033 42.7409 52.6225 41.2796C52.2365 40.1066 52.2816 38.764 52.8117 37.6951C53.4082 36.4921 54.8535 35.9757 56.1043 36.4644L56.3053 36.5427C57.4391 36.9858 58.0901 38.1438 57.956 39.3536C57.8652 40.1724 58.0824 41.565 59.8376 41.9062C63.4728 42.6131 66.2912 38.3108 64.4613 34.1145C64.224 33.7499 63.9582 33.3997 63.6624 33.0715C61.5347 30.7113 58.1252 29.3872 54.7627 29.6131C51.6953 29.82 49.1275 31.2213 47.5323 33.5588C46.388 35.2356 45.7722 37.3589 45.7514 39.6993C45.723 42.8879 46.8538 46.1411 48.8539 48.6244C50.8539 51.108 53.791 52.9064 56.9124 53.5584C60.0309 54.2104 64.2518 53.7458 66.7441 50.4884C68.059 48.7695 68.5117 46.7081 68.9909 44.5258C69.3935 42.6921 69.8098 40.7962 70.7844 39.1131C72.385 36.3484 75.7301 33.5164 79.5945 33.4218C82.641 33.3493 86.1911 35.2366 86.765 38.885C87.0669 40.8052 86.4107 42.6968 85.0941 44.1083Z" fill="#4C4949"/>
<path d="M51.2622 53.4466C52.3231 54.151 53.4714 54.7014 54.6549 55.1402L55.5602 55.4195C55.858 55.5234 56.1674 55.5894 56.475 55.6599C56.7836 55.7257 57.0865 55.8146 57.3989 55.8618L58.3356 55.998C58.492 56.0188 58.6468 56.0485 58.8041 56.0624L59.2767 56.0972L60.2215 56.1677C60.8536 56.183 61.4864 56.1644 62.12 56.1637C64.724 56.0823 67.3714 56.14 69.9468 56.8045C70.5868 56.9773 71.2236 57.1832 71.8303 57.474C72.432 57.7685 73.0241 58.1206 73.5019 58.6205C73.9781 59.1106 74.3278 59.7685 74.359 60.4558C74.3759 60.7968 74.3282 61.1329 74.2374 61.4509C74.0711 61.9842 73.6007 62.3652 73.0445 62.4175L73.0293 62.4189C71.5264 62.5602 70.2525 61.4164 70.1349 59.9114C70.0823 59.2388 69.8103 58.5496 69.1285 57.9698C68.5691 57.4939 67.8559 57.24 67.1238 57.1831C66.7479 57.1537 66.3707 57.133 65.993 57.1206C64.7191 57.0659 63.4388 57.0728 62.1588 57.1315C61.4992 57.1256 60.8375 57.137 60.1777 57.1126L59.1885 57.0279L58.6942 56.9851C58.5295 56.9702 58.3674 56.9302 58.204 56.9039L57.2263 56.7256C56.9011 56.6646 56.5841 56.5607 56.2631 56.48C55.6162 56.3332 55.003 56.0684 54.3824 55.8427C53.1637 55.321 52.0128 54.6487 50.9828 53.8286C49.9645 53.0008 49.0345 52.0435 48.3867 50.9126C49.2075 51.9168 50.1991 52.7482 51.2622 53.4466Z" fill="#4C4949"/>
<path d="M43.4188 35.3216C43.4188 35.3216 42.2008 23.995 37.2681 15.8365C36.6439 14.8039 36.7587 13.4859 37.5346 12.5619C38.8034 11.0513 41.188 11.2632 42.1707 12.9735L43.4188 15.1463L44.667 12.9735C45.6497 11.2632 48.0343 11.0513 49.3031 12.5619C50.079 13.4859 50.1939 14.8038 49.5696 15.8365C44.6369 23.9951 43.4188 35.3216 43.4188 35.3216Z" fill="#4C4949"/>
<path d="M28.441 26.8095C32.2657 26.9534 36.4648 28.1438 38.7696 28.8938C36.7702 28.3478 32.8653 27.618 26.0479 27.5063C16.917 27.3567 18.8399 22.6868 22.8483 20.8065C24.5315 20.0173 25.8145 22.5122 24.1677 23.3748C24.0375 23.443 23.8971 23.5076 23.7456 23.5682C21.0192 24.6588 22.8065 26.5975 28.441 26.8095Z" fill="#4C4949"/>
<path d="M35.3003 25.8706C31.3925 26.6885 30.8472 22.296 33.7251 22.0234C36.6029 21.7507 35.6184 18.5094 33.9069 17.6309C32.3238 16.8184 30.9987 17.5703 30.9987 17.5703C32.9981 17.6309 33.9674 19.9937 31.544 20.842C29.1206 21.6901 27.303 15.995 32.3922 15.995C37.4814 15.995 41.1772 29.627 41.1772 29.627C41.1772 29.627 39.2081 25.0527 35.3003 25.8706ZM33.6341 22.9928C33.1154 22.9928 32.695 23.4133 32.695 23.9319C32.695 24.4506 33.1154 24.871 33.6341 24.871C34.1528 24.871 34.5732 24.4506 34.5732 23.9319C34.5732 23.4133 34.1528 22.9928 33.6341 22.9928ZM35.4063 22.2205C35.1221 22.2205 34.8916 22.451 34.8916 22.7353C34.8916 23.0195 35.1221 23.25 35.4063 23.25C35.6906 23.25 35.9211 23.0195 35.9211 22.7353C35.9211 22.451 35.6906 22.2205 35.4063 22.2205ZM36.1783 21.0237C35.9608 21.0237 35.7845 21.2 35.7845 21.4175C35.7845 21.635 35.9608 21.8113 36.1783 21.8113C36.3958 21.8113 36.5721 21.635 36.5721 21.4175C36.5721 21.2 36.3958 21.0237 36.1783 21.0237Z" fill="#4C4949"/>
<path d="M29.9251 53.5584C33.0466 52.9064 35.9837 51.1079 37.9837 48.6244C39.9837 46.1411 41.1145 42.8879 41.0861 39.6993C41.0653 37.359 40.4495 35.2356 39.3052 33.5588C37.71 31.2212 35.1421 29.8199 32.0748 29.6131C28.7123 29.3872 25.3028 30.7113 23.1751 33.0715C22.8792 33.3998 22.6134 33.7498 22.3762 34.1145C20.5462 38.3109 23.3647 42.6131 26.9999 41.9062C28.7551 41.565 28.9723 40.1724 28.8815 39.3536C28.7473 38.1438 29.3984 36.9858 30.5322 36.5428L30.7332 36.4644C31.984 35.9757 33.4293 36.4921 34.0258 37.6951C34.5559 38.7641 34.601 40.1067 34.215 41.2796C33.7342 42.7409 32.598 44.0083 31.0978 44.7566C28.9253 45.84 26.3053 45.8413 24.0892 44.7596C22.0713 43.7749 20.6671 41.9931 20.2366 39.8706C19.9416 38.4165 20.1052 36.8482 20.6577 35.3801L20.6586 35.3702L20.6647 35.3623C21.0663 34.3021 21.6693 33.2944 22.4553 32.4225C24.6332 30.0064 27.89 28.6174 31.2964 28.6174C31.5769 28.6174 31.8581 28.6265 32.1402 28.6457C35.4616 28.8698 38.365 30.4614 40.1059 33.0124C41.3588 34.848 42.0329 37.1574 42.0555 39.6907C42.0863 43.1495 40.9084 46.5384 38.7387 49.2325C36.5692 51.9265 33.5096 53.7997 30.1235 54.5073C25.7755 55.4152 21.6374 54.1012 19.3236 51.0771C19.2746 51.013 19.2291 50.9472 19.1821 50.8821C19.234 53.528 15.3497 53.7011 14.4382 49.9035C13.8945 47.6378 15.1792 45.5626 15.7284 43.3573C16.0433 42.0926 15.8737 40.7429 15.2231 39.6138C15.2202 39.6088 15.2173 39.6036 15.2143 39.5987C14.7928 38.8707 14.2407 38.1377 13.585 37.4609C12.0172 35.8431 9.64995 35.2469 7.52255 35.9884C7.51273 35.9917 7.50291 35.9952 7.49319 35.9986C6.3257 36.4082 6.02218 37.9153 6.95031 38.7337C8.70351 40.2799 8.62748 43.0365 6.79155 44.4834C5.26628 45.6857 3.06802 45.5286 1.74337 44.1083C0.426755 42.6969 -0.229457 40.8052 0.0726339 38.8849C0.646562 35.2365 4.1966 33.3493 7.24312 33.4217C11.1077 33.5164 14.4526 36.3483 16.0533 39.113C17.0278 40.7961 17.4442 42.692 17.8467 44.5257C18.326 46.708 18.7786 48.7694 20.0935 50.4883C22.5859 53.7458 26.8068 54.2104 29.9251 53.5584Z" fill="#4C4949"/>
<path d="M13.3356 58.6207C13.8134 58.1208 14.4055 57.7687 15.0072 57.4743C15.6139 57.1834 16.2507 56.9775 16.8907 56.8048C19.4661 56.1403 22.1135 56.0824 24.7176 56.1639C25.3511 56.1646 25.9839 56.1833 26.616 56.1679L27.5608 56.0974L28.0334 56.0626C28.1907 56.0487 28.3456 56.0191 28.5019 55.9983L29.4387 55.862C29.7509 55.8149 30.0539 55.7259 30.3625 55.6601C30.67 55.5896 30.9794 55.5236 31.2773 55.4197L32.1826 55.1404C33.3661 54.7016 34.5144 54.1512 35.5753 53.4469C36.6384 52.7484 37.6301 51.917 38.4507 50.9131C37.803 52.0439 36.8729 53.0013 35.8546 53.8291C34.8246 54.6492 33.6737 55.3215 32.455 55.8432C31.8343 56.0689 31.2211 56.3337 30.5742 56.4804C30.2532 56.5611 29.9362 56.665 29.611 56.7261L28.6333 56.9044C28.4699 56.9306 28.3077 56.9707 28.1431 56.9856L27.6488 57.0284L26.6595 57.1131C25.9998 57.1375 25.3381 57.1261 24.6785 57.132C23.3984 57.0733 22.1181 57.0665 20.8443 57.1211C20.4666 57.1334 20.0894 57.1542 19.7135 57.1836C18.9813 57.2404 18.2682 57.4944 17.7088 57.9703C17.027 58.5501 16.7549 59.2392 16.7024 59.9119C16.5847 61.4168 15.3109 62.5606 13.8079 62.4194L13.7927 62.4179C13.2366 62.3656 12.7662 61.9846 12.5998 61.4514C12.5091 61.1334 12.4614 60.7973 12.4783 60.4563C12.5097 59.7687 12.8594 59.1108 13.3356 58.6207Z" fill="#4C4949"/>
<path d="M39.7986 6.96734L43.4189 -3.24249e-05L47.0391 6.96734L43.4189 13.5713L39.7986 6.96734Z" fill="#4C4949"/>
</svg>
