<svg width="218" height="119" viewBox="0 0 218 119" fill="none" xmlns="http://www.w3.org/2000/svg">
<path d="M29.019 33.4158C27.0796 33.4158 25.5016 31.8378 25.5016 29.8982C25.5016 27.9587 27.0796 26.3809 29.019 26.3809C30.9583 26.3809 32.5365 27.9589 32.5365 29.8982C32.5365 31.8376 30.9585 33.4158 29.019 33.4158ZM29.019 27.3754C27.6278 27.3754 26.4961 28.5072 26.4961 29.8982C26.4961 31.2893 27.6278 32.4212 29.019 32.4212C30.4102 32.4212 31.542 31.2894 31.542 29.8982C31.542 28.507 30.4102 27.3754 29.019 27.3754Z" fill="#BF9E60"/>
<path d="M189.063 94.0918C187.124 94.0918 185.546 92.5138 185.546 90.5743C185.546 88.6347 187.124 87.0569 189.063 87.0569C191.003 87.0569 192.581 88.6349 192.581 90.5743C192.581 92.5136 191.003 94.0918 189.063 94.0918ZM189.063 88.0514C187.672 88.0514 186.54 89.1832 186.54 90.5743C186.54 91.9653 187.672 93.0973 189.063 93.0973C190.454 93.0973 191.586 91.9655 191.586 90.5743C191.586 89.1831 190.454 88.0514 189.063 88.0514Z" fill="#BF9E60"/>
<path d="M167.958 59.7966L215.444 59.7966" stroke="#BF9E60" stroke-width="0.527618" stroke-linecap="square"/>
<path d="M1.75879 59.7966L49.2444 59.7966" stroke="#BF9E60" stroke-width="0.527618" stroke-linecap="square"/>
<circle cx="215.444" cy="59.7966" r="1.75873" fill="#BF9E60"/>
<circle cx="1.75873" cy="59.7966" r="1.75873" fill="#BF9E60"/>
<path d="M145.095 107.282C170.835 107.282 191.701 86.4161 191.701 60.6761C191.701 34.9362 170.835 14.0698 145.095 14.0698" stroke="#BF9E60" stroke-width="0.527618"/>
<path d="M185.546 83.5394C198.659 83.5394 209.289 73.3031 209.289 60.676C209.289 48.0488 198.659 37.8125 185.546 37.8125" stroke="#BF9E60" stroke-width="0.527618"/>
<path d="M32.5365 83.5394C19.4237 83.5394 8.7937 73.3031 8.7937 60.676C8.7937 48.0488 19.4237 37.8125 32.5365 37.8125" stroke="#BF9E60" stroke-width="0.527618"/>
<path d="M72.9873 107.282C47.2473 107.282 26.381 86.4161 26.381 60.6761C26.381 34.9362 47.2473 14.0698 72.9873 14.0698" stroke="#BF9E60" stroke-width="0.527618"/>
<mask id="mask0_33_328" style="mask-type:alpha" maskUnits="userSpaceOnUse" x="49" y="0" width="119" height="119">
<circle cx="108.601" cy="59.3571" r="59.3571" fill="#D9D9D9"/>
</mask>
<g mask="url(#mask0_33_328)">
</g>
</svg>
