<svg width="122" height="460" viewBox="0 0 122 460" fill="none" xmlns="http://www.w3.org/2000/svg">
<path d="M55.3535 1.41797C58.7121 -0.472607 62.8142 -0.472511 66.1729 1.41797L89.3818 14.4824C90.548 15.1388 91.8242 15.5778 93.1475 15.7773L112.144 18.6416C117.538 19.455 121.527 24.0904 121.527 29.5459V429.744C121.527 435.192 117.549 439.823 112.164 440.646L93.166 443.546C91.8302 443.75 90.5431 444.198 89.3691 444.867L66.2256 458.062C62.8402 459.992 58.6872 459.992 55.3018 458.062L32.1572 444.867C30.9833 444.198 29.6961 443.75 28.3604 443.546L9.36328 440.646C3.97807 439.823 0.000230269 435.192 0 429.744V29.5459C0.000144062 24.0904 3.98923 19.455 9.38379 18.6416L28.3799 15.7773C29.7032 15.5778 30.9793 15.1389 32.1455 14.4824L55.3535 1.41797Z" fill="#D9D9D9"/>
</svg>
