<svg width="23" height="23" viewBox="0 0 23 23" fill="none" xmlns="http://www.w3.org/2000/svg">
<path d="M11.3323 22.6924C5.08367 22.6924 0 17.6024 0 11.3462C0 5.0899 5.08367 0 11.3323 0C17.581 0 22.6648 5.0899 22.6648 11.3462C22.6648 17.6024 17.5811 22.6924 11.3323 22.6924ZM11.3323 0.984C5.62552 0.984 0.9828 5.63241 0.9828 11.3462C0.9828 17.0599 5.62552 21.7084 11.3323 21.7084C17.0391 21.7084 21.682 17.0598 21.682 11.3462C21.682 5.63258 17.0391 0.984 11.3323 0.984Z" fill="url(#paint0_linear_0_422)"/>
<path d="M11.1256 22.3099C11.12 22.3099 11.1145 22.31 11.1089 22.3098C10.8377 22.3006 10.6252 22.0731 10.6342 21.8016L11.3399 0.705247C11.349 0.433663 11.5746 0.221611 11.8475 0.229975C12.1187 0.239159 12.3312 0.466627 12.3222 0.738211L11.6165 21.8345C11.6075 22.1005 11.3895 22.3099 11.1256 22.3099Z" fill="url(#paint1_linear_0_422)"/>
<path d="M11.844 0.593262C11.844 0.593262 10.9142 22.2764 10.9594 22.0441C14.6516 22.2037 18.4457 20.0607 20.4276 16.9377C22.4095 13.8144 22.5856 9.62622 20.8727 6.34737C19.1598 3.06851 15.6234 0.824338 11.844 0.593262Z" fill="url(#paint2_linear_0_422)"/>
<defs>
<linearGradient id="paint0_linear_0_422" x1="-3.69094" y1="22.6924" x2="22.7388" y2="20.5343" gradientUnits="userSpaceOnUse">
<stop offset="0.156893" stop-color="#C39D61"/>
<stop offset="0.4375" stop-color="#FFCB7A"/>
<stop offset="0.653846" stop-color="#DFAB5A"/>
<stop offset="1" stop-color="#9C7E4F"/>
</linearGradient>
<linearGradient id="paint1_linear_0_422" x1="10.3589" y1="22.31" x2="12.341" y2="22.2976" gradientUnits="userSpaceOnUse">
<stop offset="0.156893" stop-color="#C39D61"/>
<stop offset="0.4375" stop-color="#FFCB7A"/>
<stop offset="0.653846" stop-color="#DFAB5A"/>
<stop offset="1" stop-color="#9C7E4F"/>
</linearGradient>
<linearGradient id="paint2_linear_0_422" x1="9.15214" y1="22.0525" x2="22.1447" y2="21.5037" gradientUnits="userSpaceOnUse">
<stop offset="0.156893" stop-color="#C39D61"/>
<stop offset="0.4375" stop-color="#FFCB7A"/>
<stop offset="0.653846" stop-color="#DFAB5A"/>
<stop offset="1" stop-color="#9C7E4F"/>
</linearGradient>
</defs>
</svg>
