<svg width="384" height="565" viewBox="0 0 384 565" fill="none" xmlns="http://www.w3.org/2000/svg">
<mask id="path-1-inside-1_2085_460" fill="white">
<path d="M363.977 0C366.572 10.4337 374.129 18.9049 384 22.7617V368.571C370.663 372.81 361 385.292 361 400.033C361 414.774 370.663 427.256 384 431.494V543.571C373.828 546.804 365.795 554.832 362.555 565H21.4609C18.2186 554.827 10.179 546.796 0 543.566V431.499C13.3447 427.265 23.0156 414.779 23.0156 400.033C23.0156 385.287 13.3448 372.8 0 368.566V21.1367C9.71704 17.7055 17.3463 9.8564 20.4736 0H363.977Z"/>
</mask>
<path d="M363.977 0L364.947 -0.241367L364.758 -1H363.977V0ZM384 22.7617H385V22.0788L384.364 21.8303L384 22.7617ZM384 368.571L384.303 369.524L385 369.303V368.571H384ZM361 400.033H360V400.033H361ZM384 431.494H385V430.763L384.303 430.541L384 431.494ZM384 543.571L384.303 544.524L385 544.303V543.571H384ZM362.555 565V566H363.286L363.507 565.304L362.555 565ZM21.4609 565L20.5082 565.304L20.7301 566H21.4609V565ZM0 543.566H-1V544.298L-0.302411 544.52L0 543.566ZM0 431.499L-0.302418 430.546L-1 430.767V431.499H0ZM23.0156 400.033H24.0156V400.033H23.0156ZM0 368.566H-1V369.298L-0.302411 369.52L0 368.566ZM0 21.1367L-0.332967 20.1938L-1 20.4293V21.1367H0ZM20.4736 0V-1H19.7418L19.5205 -0.302431L20.4736 0ZM363.977 0L363.006 0.241367C365.68 10.9933 373.466 19.7196 383.636 23.6931L384 22.7617L384.364 21.8303C374.792 18.0903 367.463 9.87419 364.947 -0.241367L363.977 0ZM384 22.7617H383V368.571H384H385V22.7617H384ZM384 368.571L383.697 367.618C369.957 371.985 360 384.844 360 400.033H361H362C362 385.741 371.369 373.635 384.303 369.524L384 368.571ZM361 400.033H360C360 415.222 369.957 428.08 383.697 432.447L384 431.494L384.303 430.541C371.369 426.431 362 414.326 362 400.033H361ZM384 431.494H383V543.571H384H385V431.494H384ZM384 543.571L383.697 542.618C373.216 545.949 364.941 554.219 361.602 564.696L362.555 565L363.507 565.304C366.65 555.445 374.44 547.659 384.303 544.524L384 543.571ZM362.555 565V564H21.4609V565V566H362.555V565ZM21.4609 565L22.4137 564.696C19.0729 554.214 10.7908 545.941 0.302411 542.613L0 543.566L-0.302411 544.52C9.56718 547.651 17.3644 555.44 20.5082 565.304L21.4609 565ZM0 543.566H1V431.499H0H-1V543.566H0ZM0 431.499L0.302418 432.452C14.0504 428.09 24.0156 415.228 24.0156 400.033H23.0156H22.0156C22.0156 414.331 12.639 426.44 -0.302418 430.546L0 431.499ZM23.0156 400.033H24.0156C24.0156 384.838 14.0505 371.975 0.302411 367.613L0 368.566L-0.302411 369.52C12.6392 373.626 22.0156 385.735 22.0156 400.033H23.0156ZM0 368.566H1V21.1367H0H-1V368.566H0ZM0 21.1367L0.332967 22.0797C10.3448 18.5443 18.2043 10.4587 21.4268 0.302431L20.4736 0L19.5205 -0.302431C16.4883 9.25411 9.08923 16.8666 -0.332967 20.1938L0 21.1367ZM20.4736 0V1H363.977V0V-1H20.4736V0Z" fill="#5C3169" mask="url(#path-1-inside-1_2085_460)"/>
</svg>
