<svg width="60" height="15" viewBox="0 0 60 15" fill="none" xmlns="http://www.w3.org/2000/svg">
<path d="M54.3202 8.44802C53.8414 8.80797 52.8276 9.48573 51.0734 9.94204C49.3401 10.397 46.9501 10.7206 44.5797 10.8803C42.4831 11.0139 40.3383 10.9436 38.2004 10.6614C36.0623 10.383 33.9359 9.87123 31.8344 9.22046C28.8985 8.30619 26.1583 7.28552 23.5333 6.39769C20.9103 5.50477 18.3941 4.74825 15.9754 4.23597C13.5574 3.72159 11.2347 3.45731 9.05192 3.46085C7.95955 3.45886 6.90767 3.54703 5.89263 3.67203C4.87703 3.81152 3.87371 4.03829 2.96144 4.46893C2.05038 4.88851 1.24218 5.54592 0.713535 6.35056C0.174267 7.14525 -0.0999527 8.13386 0.0334549 9.05531C0.159782 9.97644 0.624393 10.759 1.17152 11.3347C1.7183 11.9231 2.34694 12.3443 2.97216 12.6785C5.53144 13.9401 7.93431 13.9185 9.76949 13.6426C11.6305 13.3554 12.9932 12.7185 13.9888 12.1479C14.986 11.5648 15.6263 11.013 16.0573 10.5921C16.4965 10.1768 16.7218 9.87899 16.8615 9.70863C16.9975 9.53551 17.0407 9.48009 17.0407 9.48009C17.0407 9.48009 16.9878 9.52677 16.8231 9.67312C16.6595 9.82013 16.401 10.0825 15.9315 10.4472C15.47 10.8177 14.8023 11.3019 13.8027 11.8011C12.805 12.2887 11.4646 12.8246 9.68587 13.0168C8.80092 13.1143 7.80986 13.1352 6.73675 12.9849C5.67403 12.8291 4.49483 12.5179 3.3903 11.9055C2.84285 11.5916 2.30192 11.2014 1.86464 10.7018C1.42095 10.2093 1.09761 9.59889 1.02228 8.93418C0.855019 7.59911 1.88567 6.12501 3.42328 5.47977C4.97095 4.79769 6.97912 4.68287 9.04692 4.67491C11.1302 4.70311 13.3578 4.98364 15.699 5.50886C18.0428 6.03275 20.495 6.79315 23.0888 7.69812C25.6849 8.59757 28.4259 9.63805 31.4108 10.5825C33.5468 11.2545 35.7109 11.876 37.9055 12.3508C40.0975 12.8283 42.3084 13.1797 44.5223 13.4116C45.785 13.5436 47.0452 13.6172 48.2508 13.6358C49.4477 13.6543 50.622 13.6266 51.7292 13.4926C52.834 13.3601 53.8663 13.115 54.7258 12.7865C55.5865 12.4604 56.2644 12.0613 56.7012 11.7428C57.8058 10.9616 58.5982 9.84557 59.0138 8.77666C59.4457 7.69702 59.5198 6.59757 59.3571 5.71693C59.1832 4.82777 58.7825 4.18032 58.3816 3.85842C57.9848 3.5291 57.6313 3.48885 57.399 3.62989C56.9145 3.94659 56.8887 4.79514 56.4886 5.66671C56.1087 6.54525 55.4075 7.67766 54.3202 8.44802Z" fill="url(#paint0_linear_0_94)"/>
<path d="M38.7943 4.72278C39.3704 4.46083 40.3885 3.90739 41.7829 3.59976C43.1553 3.28206 44.9447 3.27786 46.4041 4.10784C47.6769 4.83007 48.7008 6.32199 48.7127 7.87044C48.7354 8.63869 48.4689 9.4044 48 10.0827C47.5291 10.7604 46.8625 11.3379 46.1168 11.8012C43.9906 13.0953 41.5618 13.5903 39.3076 13.6249C37.0364 13.6612 34.8883 13.2896 32.9287 12.7493C30.9645 12.2164 29.1813 11.4916 27.5222 10.773C25.865 10.0495 24.3365 9.31745 22.8995 8.65008C20.0315 7.30573 17.5107 6.24887 15.2759 5.59423C13.0434 4.93626 11.1346 4.62831 9.55476 4.51481C6.38453 4.28793 4.57038 4.72399 3.57878 4.94755C3.07812 5.06215 2.78022 5.17576 2.60058 5.23041C2.42315 5.29269 2.36641 5.31237 2.36641 5.31237C2.36641 5.31237 2.42625 5.30485 2.61298 5.28118C2.79992 5.25906 3.10786 5.19279 3.61406 5.13626C4.6176 5.0283 6.4198 4.75939 9.49181 5.14335C11.0231 5.3345 12.8639 5.71625 15.012 6.43284C17.1626 7.14633 19.5957 8.24919 22.4215 9.65328C23.8372 10.3504 25.3575 11.1166 27.0293 11.8819C28.7007 12.6403 30.5278 13.4182 32.5774 14.0036C34.6183 14.5936 36.8786 15.0163 39.3272 14.9995C41.7626 14.9789 44.4261 14.4795 46.8627 13.0164C47.7277 12.483 48.5475 11.827 49.2061 10.9797C49.8593 10.1413 50.3381 9.07608 50.421 7.9544C50.5979 5.70441 49.5676 3.56791 47.92 2.08241C46.9444 1.21316 45.7962 0.680189 44.647 0.356628C43.4983 0.0434652 42.3702 -0.0354067 41.3645 0.0132658C39.3404 0.11227 37.811 0.7 37.0825 1.03374C35.2971 1.87444 34.0411 3.05475 33.3169 4.04125C32.5928 5.03815 32.3665 5.87708 32.7097 6.31779C33.056 6.76259 33.9205 6.71579 35.0187 6.35772C36.1206 6.00263 37.4397 5.35651 38.7943 4.72278Z" fill="url(#paint1_linear_0_94)"/>
<defs>
<linearGradient id="paint0_linear_0_94" x1="69.1158" y1="13.7957" x2="11.9752" y2="-13.0697" gradientUnits="userSpaceOnUse">
<stop offset="0.156893" stop-color="#C39D61"/>
<stop offset="0.4375" stop-color="#FFCB7A"/>
<stop offset="0.653846" stop-color="#DFAB5A"/>
<stop offset="1" stop-color="#9C7E4F"/>
</linearGradient>
<linearGradient id="paint1_linear_0_94" x1="58.2696" y1="15" x2="5.46114" y2="1.16351" gradientUnits="userSpaceOnUse">
<stop offset="0.156893" stop-color="#C39D61"/>
<stop offset="0.4375" stop-color="#FFCB7A"/>
<stop offset="0.653846" stop-color="#DFAB5A"/>
<stop offset="1" stop-color="#9C7E4F"/>
</linearGradient>
</defs>
</svg>
