<svg width="211" height="59" viewBox="0 0 211 59" fill="none" xmlns="http://www.w3.org/2000/svg">
<mask id="path-1-inside-1_138_889" fill="white">
<path d="M199.231 0C199.231 5.84256 204.176 10.6139 210.395 10.9062L211 10.9199V47.5801C204.5 47.5801 199.231 52.4691 199.231 58.5H12.6094C12.6093 52.4691 7.33961 47.5801 0.839844 47.5801C0.557399 47.5801 0.277465 47.5922 0 47.6104V10.8887C0.27749 10.9068 0.557374 10.9199 0.839844 10.9199C7.23798 10.9199 12.4442 6.18278 12.6055 0.282227L12.6094 0H199.231Z"/>
</mask>
<path d="M199.231 0H200.231V-1H199.231V0ZM210.395 10.9062L210.348 11.9051L210.36 11.9057L210.372 11.906L210.395 10.9062ZM211 10.9199H212V9.94225L211.023 9.92018L211 10.9199ZM211 47.5801V48.5801H212V47.5801H211ZM199.231 58.5V59.5H200.231V58.5L199.231 58.5ZM12.6094 58.5L11.6094 58.5L11.6094 59.5H12.6094V58.5ZM0.839844 47.5801V46.5801H0.839814L0.839844 47.5801ZM0 47.6104H-1V48.678L0.0653272 48.6082L0 47.6104ZM0 10.8887L0.065333 9.89081L-1 9.82106V10.8887H0ZM0.839844 10.9199L0.839814 11.9199H0.839844V10.9199ZM12.6055 0.282227L13.6052 0.309552L13.6054 0.296066L12.6055 0.282227ZM12.6094 0V-1H11.6231L11.6095 -0.0138395L12.6094 0ZM199.231 0H198.231C198.231 6.44347 203.665 11.591 210.348 11.9051L210.395 10.9062L210.441 9.90735C204.687 9.63682 200.231 5.24165 200.231 0H199.231ZM210.395 10.9062L210.372 11.906L210.977 11.9197L211 10.9199L211.023 9.92018L210.417 9.9065L210.395 10.9062ZM211 10.9199H210V47.5801H211H212V10.9199H211ZM211 47.5801V46.5801C204.02 46.5801 198.231 51.8477 198.231 58.5L199.231 58.5L200.231 58.5C200.231 53.0905 204.981 48.5801 211 48.5801V47.5801ZM199.231 58.5V57.5H12.6094V58.5V59.5H199.231V58.5ZM12.6094 58.5L13.6094 58.5C13.6093 51.8475 7.82001 46.5801 0.839844 46.5801V47.5801V48.5801C6.85922 48.5801 11.6093 53.0906 11.6094 58.5L12.6094 58.5ZM0.839844 47.5801L0.839814 46.5801C0.529289 46.5801 0.226524 46.5934 -0.0653272 46.6125L0 47.6104L0.0653272 48.6082C0.328407 48.591 0.585509 48.5801 0.839874 48.5801L0.839844 47.5801ZM0 47.6104H1V10.8887H0H-1V47.6104H0ZM0 10.8887L-0.065333 11.8865C0.223807 11.9055 0.527369 11.9199 0.839814 11.9199L0.839844 10.9199L0.839874 9.91992C0.587379 9.91991 0.331172 9.90821 0.065333 9.89081L0 10.8887ZM0.839844 10.9199V11.9199C7.71206 11.9199 13.4272 6.81664 13.6051 0.30955L12.6055 0.282227L11.6058 0.254903C11.4611 5.54891 6.76389 9.91992 0.839844 9.91992V10.9199ZM12.6055 0.282227L13.6054 0.296066L13.6093 0.0138395L12.6094 0L11.6095 -0.0138395L11.6056 0.268387L12.6055 0.282227ZM12.6094 0V1H199.231V0V-1H12.6094V0Z" fill="url(#paint0_linear_138_889)" mask="url(#path-1-inside-1_138_889)"/>
<defs>
<linearGradient id="paint0_linear_138_889" x1="17.5529" y1="1.49252e-06" x2="178.135" y2="60.9543" gradientUnits="userSpaceOnUse">
<stop offset="0.156893" stop-color="#AC8B56"/>
<stop offset="0.4375" stop-color="#E7B86D"/>
<stop offset="0.653846" stop-color="#C79951"/>
<stop offset="1" stop-color="#8D7145"/>
</linearGradient>
</defs>
</svg>
