<svg width="29" height="29" viewBox="0 0 29 29" fill="none" xmlns="http://www.w3.org/2000/svg">
<path d="M14.1602 17.1338C15.8024 17.1338 17.1338 15.8024 17.1338 14.1602C17.1338 12.5179 15.8024 11.1865 14.1602 11.1865C12.5179 11.1865 11.1865 12.5179 11.1865 14.1602C11.1865 15.8024 12.5179 17.1338 14.1602 17.1338Z" fill="white"/>
<path d="M14.1602 0C6.33973 0 0 6.33973 0 14.1602C0 21.9806 6.33973 28.3203 14.1602 28.3203C21.9806 28.3203 28.3203 21.9806 28.3203 14.1602C28.3203 6.33973 21.9806 0 14.1602 0ZM22.9088 17.7591C22.8408 19.1053 22.4625 20.4329 21.4814 21.4035C20.4908 22.3834 19.157 22.7485 17.7978 22.8158H10.5226C9.16321 22.7485 7.82955 22.3836 6.83896 21.4035C5.85783 20.4329 5.47958 19.1053 5.41162 17.7591V10.5612C5.47958 9.21498 5.85789 7.88743 6.83896 6.91673C7.82955 5.93684 9.16338 5.57174 10.5226 5.50451H17.7977C19.1571 5.57174 20.4908 5.93667 21.4814 6.91673C22.4625 7.88743 22.8407 9.21498 22.9087 10.5612L22.9088 17.7591Z" fill="white"/>
<path d="M17.7058 7.14485C15.9338 7.09625 12.387 7.09625 10.6149 7.14485C9.69273 7.17017 8.64731 7.39973 7.99028 8.10151C7.30754 8.83098 7.04954 9.71231 7.02337 10.6983C6.97738 12.4287 7.02337 17.6227 7.02337 17.6227C7.05333 18.6085 7.30754 19.49 7.99028 20.2194C8.64731 20.9214 9.69273 21.1508 10.6149 21.1761C12.387 21.2247 15.9338 21.2247 17.7058 21.1761C18.628 21.1508 19.6734 20.9212 20.3305 20.2194C21.0132 19.49 21.2712 18.6086 21.2974 17.6227V10.6983C21.2712 9.71231 21.0132 8.83098 20.3305 8.10151C19.6732 7.3995 18.6278 7.17017 17.7058 7.14485ZM14.1601 18.7696C13.2485 18.7696 12.3574 18.4993 11.5994 17.9928C10.8415 17.4864 10.2507 16.7665 9.90186 15.9243C9.55301 15.0821 9.46173 14.1554 9.63958 13.2613C9.81742 12.3672 10.2564 11.5459 10.901 10.9013C11.5456 10.2567 12.3669 9.81774 13.2609 9.6399C14.155 9.46206 15.0818 9.55333 15.924 9.90219C16.7662 10.251 17.486 10.8418 17.9925 11.5998C18.499 12.3577 18.7693 13.2489 18.7693 14.1605C18.7693 15.3829 18.2837 16.5552 17.4193 17.4196C16.5549 18.284 15.3826 18.7696 14.1601 18.7696ZM18.7889 10.5027C18.6066 10.5027 18.4284 10.4486 18.2768 10.3473C18.1252 10.2459 18.0071 10.102 17.9374 9.93351C17.8676 9.76507 17.8494 9.57973 17.885 9.40093C17.9206 9.22212 18.0084 9.05789 18.1374 8.92899C18.2663 8.8001 18.4305 8.71232 18.6093 8.67677C18.7882 8.64122 18.9735 8.65949 19.1419 8.72927C19.3103 8.79905 19.4543 8.9172 19.5556 9.06879C19.6569 9.22038 19.7109 9.39859 19.7109 9.5809C19.7109 9.70198 19.6871 9.82187 19.6407 9.93372C19.5944 10.0456 19.5265 10.1472 19.4409 10.2328C19.3552 10.3184 19.2536 10.3863 19.1417 10.4326C19.0298 10.4789 18.9099 10.5028 18.7889 10.5027Z" fill="white"/>
</svg>
