<svg width="29" height="29" viewBox="0 0 29 29" fill="none" xmlns="http://www.w3.org/2000/svg">
<path d="M13.0784 16.8393L17.1003 14.5059L13.0784 12.1611V16.8393Z" fill="white"/>
<path d="M14.5 0C11.6322 0 8.82875 0.85041 6.44424 2.44369C4.05973 4.03697 2.20122 6.30156 1.10375 8.95109C0.00628259 11.6006 -0.280866 14.5161 0.27862 17.3288C0.838106 20.1415 2.2191 22.7252 4.24696 24.753C6.27482 26.7809 8.85847 28.1619 11.6712 28.7214C14.4839 29.2809 17.3994 28.9937 20.0489 27.8963C22.6984 26.7988 24.963 24.9403 26.5563 22.5558C28.1496 20.1713 29 17.3678 29 14.5C29 10.6544 27.4723 6.96623 24.7531 4.24695C22.0338 1.52767 18.3456 0 14.5 0ZM22.1316 17.0661C22.1318 17.4454 22.0574 17.8209 21.9124 18.1714C21.7674 18.5218 21.5549 18.8403 21.2868 19.1085C21.0187 19.3768 20.7004 19.5896 20.3501 19.7348C19.9997 19.8799 19.6242 19.9547 19.2449 19.9547H9.75507C9.37583 19.9547 9.00031 19.8799 8.64996 19.7348C8.29961 19.5896 7.98131 19.3768 7.71323 19.1085C7.44516 18.8403 7.23257 18.5218 7.08761 18.1714C6.94266 17.8209 6.86818 17.4454 6.86843 17.0661V11.9339C6.86818 11.5546 6.94266 11.1791 7.08761 10.8286C7.23257 10.4782 7.44516 10.1597 7.71323 9.89148C7.98131 9.62323 8.29961 9.41043 8.64996 9.26524C9.00031 9.12006 9.37583 9.04533 9.75507 9.04533H19.2449C19.6242 9.04533 19.9997 9.12006 20.3501 9.26524C20.7004 9.41043 21.0187 9.62323 21.2868 9.89148C21.5549 10.1597 21.7674 10.4782 21.9124 10.8286C22.0574 11.1791 22.1318 11.5546 22.1316 11.9339V17.0661Z" fill="white"/>
</svg>
